<svg xmlns="http://www.w3.org/2000/svg" viewBox="0 0 143.78 166.17"><defs><style>.cls-1,.cls-9{fill:#b2b2b2;}.cls-1,.cls-2,.cls-3,.cls-4,.cls-5,.cls-6,.cls-7{fill-rule:evenodd;}.cls-2{fill:#fff;}.cls-3{fill:#8b8d8e;}.cls-4{fill:#f2a40c;}.cls-5{fill:#4e94cf;}.cls-6,.cls-8{fill:#e5e5e5;}.cls-7{fill:#d53535;}</style></defs><title>clip_board</title><g id="Layer_2" data-name="Layer 2"><g id="Layer_1-2" data-name="Layer 1"><polygon class="cls-1" points="55.23 0 143.78 38.68 88.82 166.17 0 127.72 55.23 0"/><polygon class="cls-2" points="55.09 8.63 137.63 44.66 87.13 161.78 4.37 125.94 55.09 8.63"/><path class="cls-3" d="M93.87,18.75l.18.08.22-.51,9-9.73A2.49,2.49,0,0,0,104,9a2.42,2.42,0,0,0,2.61-4L108.55,3a5.32,5.32,0,0,1,1.25,6l-6.1,14.12,8.86,3.87a3,3,0,0,1,1.57,4l-2.82,6.51L86.56,26.6Zm.4-.43,5.88-13.61A5.25,5.25,0,0,1,107.06,2a5.17,5.17,0,0,1,1.49,1l-1.93,2.08a2.49,2.49,0,0,0-.69-.45,2.4,2.4,0,0,0-3.18,1.25,2.46,2.46,0,0,0,.57,2.74ZM85.18,15l8.69,3.79L86.56,26.6,78.41,23l2.81-6.52A3,3,0,0,1,85.18,15Z"/><polygon class="cls-2" points="106.98 63.67 86.04 54.35 65.07 45.02 52.77 72.88 40.46 100.76 61.45 110.08 82.42 119.38 94.7 91.52 106.98 63.67"/><polygon class="cls-4" points="106.98 63.67 86.04 54.35 65.07 45.02 63.88 47.72 84.85 57.06 105.79 66.38 106.98 63.67"/><polygon class="cls-5" points="93.87 63.04 84.12 58.7 74.36 54.36 72.54 58.48 82.3 62.82 92.06 67.16 93.87 63.04"/><polygon class="cls-4" points="101.12 76.96 80.18 67.64 59.2 58.31 54.18 69.68 75.16 79.01 96.12 88.32 101.12 76.96"/><polygon class="cls-6" points="93.73 71.9 80.83 66.16 67.92 60.41 68.68 58.69 81.59 64.43 94.5 70.17 93.73 71.9"/><polygon class="cls-4" points="88.53 98.65 83.27 96.32 78 93.98 82.05 84.79 87.32 87.13 92.58 89.47 88.53 98.65"/><polygon class="cls-7" points="75.37 92.81 70.11 90.47 64.84 88.13 68.89 78.94 74.16 81.28 79.42 83.62 75.37 92.81"/><polygon class="cls-5" points="62.2 86.96 56.94 84.62 51.66 82.28 55.72 73.09 60.99 75.43 66.26 77.77 62.2 86.96"/><polygon class="cls-4" points="84.6 114.43 63.64 105.13 42.64 95.81 40.46 100.76 61.45 110.08 82.42 119.38 84.6 114.43"/><polygon class="cls-6" points="87.21 101.64 81.95 99.3 76.68 96.96 77.45 95.24 82.71 97.57 87.97 99.91 87.21 101.64"/><polygon class="cls-6" points="85.9 104.61 80.64 102.27 75.37 99.93 76.14 98.21 81.4 100.54 86.66 102.88 85.9 104.61"/><polygon class="cls-6" points="84.59 107.57 79.33 105.24 74.07 102.9 74.83 101.17 80.1 103.51 85.36 105.85 84.59 107.57"/><polygon class="cls-6" points="83.28 110.54 76.62 107.59 77.38 105.86 84.05 108.82 83.28 110.54"/><polygon class="cls-6" points="74.05 95.79 68.79 93.46 63.52 91.12 64.28 89.39 69.55 91.73 74.81 94.07 74.05 95.79"/><polygon class="cls-6" points="72.74 98.77 67.48 96.43 62.21 94.09 62.97 92.36 68.24 94.7 73.5 97.04 72.74 98.77"/><polygon class="cls-6" points="71.43 101.73 66.17 99.39 60.9 97.05 61.66 95.33 66.93 97.67 72.2 100 71.43 101.73"/><polygon class="cls-6" points="70.12 104.7 63.45 101.74 64.21 100.01 70.89 102.97 70.12 104.7"/><polygon class="cls-6" points="60.88 89.95 55.62 87.61 50.34 85.27 51.11 83.54 56.38 85.88 61.65 88.22 60.88 89.95"/><polygon class="cls-6" points="59.57 92.92 54.3 90.58 49.03 88.24 49.79 86.51 55.07 88.85 60.34 91.19 59.57 92.92"/><polygon class="cls-6" points="58.26 95.89 52.99 93.55 47.72 91.2 48.48 89.48 53.76 91.82 59.03 94.16 58.26 95.89"/><polygon class="cls-6" points="56.95 98.86 50.28 95.89 51.04 94.17 57.71 97.13 56.95 98.86"/><path class="cls-8" d="M61.08,64.62a.22.22,0,0,0,.08-.28.17.17,0,0,0-.25-.07l-1.39.85h-.07v0h0v0h0v0L59.73,67a.17.17,0,0,0,.22.13.2.2,0,0,0,.14-.24l-.28-1.46Z"/><path class="cls-8" d="M95.59,79.69a.17.17,0,0,0-.22-.14.21.21,0,0,0-.14.25l.28,1.46L94.24,82a.22.22,0,0,0-.08.28.17.17,0,0,0,.25.07l1.39-.85,0,0h.05v0h0v0h0v0h0v0h0v0Z"/><path class="cls-9" d="M66.69,30.27a.64.64,0,0,1,.67-1.09A27.28,27.28,0,0,1,79.94,48.32a16.81,16.81,0,0,1-1.52,10L81.25,60,74,64.79l.52-8.73,2.82,1.63c2.5-4.74,1.64-10.86-.42-15.6A26.58,26.58,0,0,0,66.69,30.27Z"/><path class="cls-1" d="M88.13,52.1l-.83-.93,0,0,0,0,0,0,0,0v0l0,0,0,0v.53l0,0v0l0,0v0l0,0,0,0,0,0,0,0,0,0,0,0,0,0,0,0h0l0,0H88l0,0h0l0,0,0,0,0,0Zm-5.8,4.34,8.21-2.21-5.06-5.71Zm5-5.27.83.93.61-.5.65-.47.69-.43.73-.4.77-.35.8-.31.83-.28.86-.23.89-.2.91-.15.93-.11,1-.06,1,0,1,0,1,.07,1,.1,1,.16,1,.19,1,.24,1,.29,1,.34,1,.38,1,.42,1,.47,1,.52,1,.57,1,.62,1,.66.93.71.9.76.88.81.85.86.9-.86-.89-.9-.92-.84-1-.8-1-.74-1-.7-1-.64-1-.6-1-.54-1-.5-1.06-.44-1.07-.4-1.07-.35-1.08-.3L104,47.9l-1.08-.2-1.07-.16-1.06-.12-1-.06-1,0-1,0-1,.07-1,.12-1,.16-1,.21-.92.25-.9.29-.86.34-.83.39-.8.43-.76.47-.72.52Zm30.92,4.74-.9.86,0,0,0,0,0,0h0l0,0,0,0H118l0,0h.06l0,0,0,0,0,0h0l0,0,0,0,0,0,0,0,0,0,0,0v0l0,0v-.55l0,0v0l0,0,0,0,0,0Z"/><path class="cls-1" d="M55.09,111.79l1.16.45v-.45l0,0v-.06l0,0v0l0,0,0,0,0,0,0,0,0,0,0,0,0,0,0,0h0l0,0h-.56l0,0h0l0,0,0,0h0l0,0,0,0,0,0,0,0,0,0,0,0v0l0,0v.05Zm3.16-6.53L52,111l7.11,2.74Zm-2,7-1.16-.45-.22.5-.28.51-.34.53-.39.53-.45.54-.5.55-.55.55-.59.55-.64.54-.68.55-.71.53-.74.52-.78.52-.81.5-.82.48-.85.47-.87.45L44,121l-.89.41-.91.38-.9.36-.92.32-.91.3-.91.27-.9.23-.89.2-.88.16-.86.12-.84.08-.82,0h-.79l-.77,0-.12,1.25.84,0h.87l.88,0,.9-.09.91-.13.93-.17.93-.21.94-.24.95-.28,1-.31.94-.34.94-.36.94-.4.92-.42.91-.44.89-.47.88-.48.86-.5.83-.52.8-.53.78-.55.74-.56.71-.56.67-.58.63-.58.59-.59.54-.59.49-.59.44-.59.38-.6.33-.6ZM31.68,125.11l.12-1.25h-.33l0,0h0l0,0h0l0,0,0,0,0,0,0,0,0,0,0,0,0,0v0l0,0v.59l0,0,0,0v0l0,0,0,0,0,0,0,0,0,0,0,0h0l0,0h0l0,0h.21Z"/><path class="cls-9" d="M121.17,68.43a.45.45,0,0,0,.26.58.44.44,0,0,0,.57-.26,19.09,19.09,0,0,0,0-5c-.11-1.73-.22-3.61-.19-5,.18-.68.42-1.51.73-2.56a.45.45,0,0,0,0-.36.45.45,0,0,0-.61-.18c-.59.32-.85,1.4-.94,2.81-.17.64-.29,1.16-.4,1.61a21.26,21.26,0,0,1-1.84,5v-.37a5.92,5.92,0,0,0-.23-1.66.43.43,0,0,0-.54-.26c-.67.19-1.09.92-1.49,1.65a16.71,16.71,0,0,0-.22-2.77,3.22,3.22,0,0,0-.4-1.14.83.83,0,0,0-1.07-.41,1.91,1.91,0,0,0-.76.64h0l0,0-.14,0a.44.44,0,0,0-.26.85l.17.07h0a.63.63,0,0,0,.43.06c.21,0,.29-.16.5-.43h0a1,1,0,0,1,.37-.35s0,0,0,.06a2.51,2.51,0,0,1,.27.82,20.75,20.75,0,0,1,.18,4,.44.44,0,0,0,.72.39,4.68,4.68,0,0,0,.93-1.31,7.91,7.91,0,0,1,.58-.95c0,.22,0,.48.05.75a20.43,20.43,0,0,1-.05,2.35.44.44,0,0,0,.83.24A35.75,35.75,0,0,0,121,61.83c0,.66.07,1.32.11,2A19.84,19.84,0,0,1,121.17,68.43Z"/><path class="cls-9" d="M52.79,139.26a.44.44,0,0,0,.59.23.45.45,0,0,0,.22-.59l-.32-.72a33.3,33.3,0,0,1-1.59-5.34c-.36-1.45-.7-2.86-1.11-4a.44.44,0,0,0-.56-.27.41.41,0,0,0-.18.12A18,18,0,0,0,48.23,131c-.55.86-1.14,1.79-1.61,2.44q.09-.42.15-.87a38.68,38.68,0,0,0,.35-3.89.43.43,0,0,0-.28-.43c-1-.38-1.43.2-2,.92a5.19,5.19,0,0,1-.78.86c.06-1-.59-1.67-1.61-2.69a22.09,22.09,0,0,1-1.61-1.72.45.45,0,0,0-.43-.14c-.24,0-.44.08-.63.13a5,5,0,0,0-.58.2.45.45,0,0,0-.25.58.44.44,0,0,0,.57.25l.5-.17.31-.07c.55.64,1.06,1.14,1.49,1.58.91.91,1.46,1.46,1.32,2.18a.45.45,0,0,0,0,.2l.14.48,0,.08a.44.44,0,0,0,.59.23,4.2,4.2,0,0,0,1.65-1.43,1.82,1.82,0,0,1,.66-.65,33.71,33.71,0,0,1-.32,3.37,7.82,7.82,0,0,1-.5,2,.48.48,0,0,0-.06.18.45.45,0,0,0,.41.48c.87.08,2.12-1.91,3.24-3.66.37-.59.72-1.15,1-1.58.29,1,.56,2,.82,3.14a35.38,35.38,0,0,0,1.65,5.49Z"/><path class="cls-1" d="M55.53,128.36a.44.44,0,1,0-.74-.49,10.92,10.92,0,0,1-1.37,1.78,18.42,18.42,0,0,1,0-2.4,3.91,3.91,0,0,0-.11-1.47.44.44,0,0,0-.54-.17h0l0,0,0,0-1.1,1.19.42,0,.09,0,.41-.14c0,.16,0,.37,0,.61,0,1.31-.06,3.15.56,3.57a.46.46,0,0,0,.58-.07l.35-.39A10.58,10.58,0,0,0,55.53,128.36Zm-2.83-2.74-.84.28c-.75.08-.76,0-.77-.14a2,2,0,0,0-.5-1.23.44.44,0,1,0-.66.59,1.22,1.22,0,0,1,.28.73c.06.66.11,1.05,1.38,1l1.1-1.19,0,0,.05,0Z"/><path class="cls-9" d="M65.39,39.59a.44.44,0,0,0,.29.56.45.45,0,0,0,.56-.3,19.77,19.77,0,0,0,.11-5.33,7.08,7.08,0,0,0-.48-1.92,1.49,1.49,0,0,0-1.26-1,1.53,1.53,0,0,0-.78.21,37.54,37.54,0,0,0-3.22,2.67l-.14-2c-.1-1.51-.19-3.13-.21-3.64a.42.42,0,0,0-.22-.37h0c-.49-.29-1.1.08-1.67.63l-.26.28a5.81,5.81,0,0,0-.14-.81.43.43,0,0,0-.53-.33h0l-.59.16a.37.37,0,0,0-.2.12l-.24.26a4.56,4.56,0,0,0-.12-.85.9.9,0,0,1,0-.47.45.45,0,1,0-.81-.37,1.49,1.49,0,0,0,0,1,2.47,2.47,0,0,1-.14,1.71.46.46,0,0,0,0,.26.44.44,0,0,0,.52.35,3.25,3.25,0,0,0,1.23-1l.19-.21a4.24,4.24,0,0,1,.07.88,2,2,0,0,1-.07.47l-.12.18a.45.45,0,0,0,.16.61.46.46,0,0,0,.58-.11,1.64,1.64,0,0,0,.14-.22l0,0a9.43,9.43,0,0,1,1-1.27l.4-.38c0,.73.11,2,.19,3.19s.18,2.48.23,2.86a.44.44,0,0,0,.44.42c.16,0,.38-.19.71-.48.87-.77,2.83-2.51,3.3-2.77a.72.72,0,0,1,.32-.1c.18,0,.34.2.48.51a5.85,5.85,0,0,1,.4,1.66A18.24,18.24,0,0,1,65.39,39.59Z"/></g></g></svg>