<svg xmlns="http://www.w3.org/2000/svg" viewBox="0 0 309.76 221.84"><defs><style>.cls-1{fill:#d3a169;}.cls-1,.cls-2,.cls-3,.cls-4{fill-rule:evenodd;}.cls-2{fill:#fdd3a3;}.cls-3{fill:#fff;}.cls-4{fill:#dd6700;}.cls-5{fill:#fcfcfc;}.cls-6{fill:#5d0e15;}.cls-7{fill:#8d1520;}.cls-8{fill:#bc1c2c;}.cls-9{fill:#c94a55;}.cls-10{fill:#d54219;}.cls-11{fill:#f1665c;}.cls-12{fill:#f38b84;}.cls-13{fill:#f8b2ae;}.cls-14{fill:#f5921c;}.cls-15{fill:#f8a74a;}.cls-16{fill:#f8be76;}.cls-17{fill:#fad3a4;}.cls-18{fill:#8bc53e;}.cls-19{fill:#a2d063;}.cls-20{fill:#b9dc8b;}.cls-21{fill:#d0e7b0;}.cls-22{fill:#00a69b;}.cls-23{fill:#32b7b0;}.cls-24{fill:#65c9c2;}.cls-25{fill:#98dad7;}.cls-26{fill:#1b74bb;}.cls-27{fill:#488fc7;}.cls-28{fill:#76abd5;}.cls-29{fill:#a2c7e3;}.cls-30{fill:#fce7bc;}</style></defs><title>color_card</title><g id="Layer_2" data-name="Layer 2"><g id="Layer_1-2" data-name="Layer 1"><path class="cls-1" d="M108.05,89.27a4.47,4.47,0,0,0-2.14-6.07L84.09,74.3A4.74,4.74,0,0,0,78,76.7a4.51,4.51,0,0,0,2.14,6.06L102,91.66A4.73,4.73,0,0,0,108.05,89.27Z"/><path class="cls-1" d="M100.73,96.61a4.54,4.54,0,0,0-1.15-6.37l-20-12.36a4.67,4.67,0,0,0-6.34,1.4,4.58,4.58,0,0,0,1.15,6.37L94.4,98A4.66,4.66,0,0,0,100.73,96.61Z"/><polygon class="cls-1" points="60.3 106.76 65.21 77.12 88.28 70.9 101.35 78.52 75.87 108.33 60.3 106.76"/><path class="cls-2" d="M111.43,77.34a4.43,4.43,0,0,0-2.78-5.77L85.93,65.13a4.79,4.79,0,0,0-5.81,3,4.48,4.48,0,0,0,2.78,5.77l22.72,6.44A4.79,4.79,0,0,0,111.43,77.34Z"/><path class="cls-1" d="M92.49,103.86a4.64,4.64,0,0,0,.62-6.51L77.36,79.82A4.55,4.55,0,0,0,71,79.43,4.72,4.72,0,0,0,70.34,86l15.75,17.53A4.53,4.53,0,0,0,92.49,103.86Z"/><path class="cls-2" d="M63,99.86c-8.72,4.14-7.52,19-2.4,23.41s13.85,1.74,20.54-5.42,5.62-16.74,2.87-19S71.74,95.73,63,99.86Z"/><path class="cls-2" d="M58.78,111.54c2.36.76,5.48-.5,5.82-3l4.11-30.74c.34-2.51-.4-5-2.76-5.78a4.73,4.73,0,0,0-5.82,3L56,105.76C55.68,108.28,56.42,110.78,58.78,111.54Z"/><path class="cls-2" d="M87.83,67.9A4.44,4.44,0,0,0,82,65.31L63.29,72a4.75,4.75,0,0,0-2.77,6,4.41,4.41,0,0,0,5.82,2.59l18.72-6.67A4.75,4.75,0,0,0,87.83,67.9Z"/><path class="cls-2" d="M74.32,74.43c-1.2,4.21-5.68,24.87,5,22.35s-10.53,17-10.53,17L59.17,98.93S59.4,78.38,74.32,74.43Z"/><polygon class="cls-2" points="58.86 99.66 77.24 113.2 70.34 126.14 50.47 114.73 58.86 99.66"/><polygon class="cls-3" points="49.69 111.51 75.12 125.8 70.46 133.94 45.03 119.65 49.69 111.51"/><polygon class="cls-4" points="24.37 221.84 73 135.36 42.49 118.22 0 193.94 24.37 221.84"/><polygon class="cls-5" points="99.68 64.45 103.74 84.94 173.09 68.29 169.03 47.82 99.68 64.45"/><polygon class="cls-6" points="112.25 61.43 116.32 81.92 128.38 79.02 124.32 58.54 112.25 61.43"/><polygon class="cls-7" points="127.34 57.82 131.4 78.3 143.46 75.4 139.4 54.93 127.34 57.82"/><polygon class="cls-8" points="142.42 54.2 146.47 74.68 158.53 71.78 154.47 51.31 142.42 54.2"/><polygon class="cls-9" points="157.48 50.59 161.54 71.06 173.59 68.17 169.53 47.7 157.48 50.59"/><polygon class="cls-5" points="98.95 66.09 108.31 84.53 171.44 49.86 162.1 31.44 98.95 66.09"/><polygon class="cls-10" points="110.4 59.81 119.76 78.24 130.74 72.21 121.39 53.78 110.4 59.81"/><polygon class="cls-11" points="124.14 52.27 133.49 70.7 144.47 64.67 135.12 46.24 124.14 52.27"/><polygon class="cls-12" points="137.87 44.74 147.21 63.17 158.19 57.14 148.84 38.71 137.87 44.74"/><polygon class="cls-13" points="151.59 37.21 160.93 55.63 171.9 49.61 162.56 31.18 151.59 37.21"/><polygon class="cls-5" points="98.68 67.85 112.65 82.9 164.99 32.72 151.04 17.68 98.68 67.85"/><polygon class="cls-14" points="108.17 58.75 122.14 73.8 131.25 65.07 117.28 50.02 108.17 58.75"/><polygon class="cls-15" points="119.56 47.84 133.52 62.89 142.62 54.16 128.67 39.12 119.56 47.84"/><polygon class="cls-16" points="130.94 36.94 144.9 51.98 153.99 43.26 140.04 28.21 130.94 36.94"/><polygon class="cls-17" points="142.32 26.03 156.27 41.08 165.36 32.36 151.42 17.31 142.32 26.03"/><polygon class="cls-5" points="98.88 69.6 116.45 80.17 154.18 18.13 136.64 7.55 98.88 69.6"/><polygon class="cls-18" points="105.72 58.35 123.29 68.92 129.85 58.13 112.29 47.56 105.72 58.35"/><polygon class="cls-19" points="113.93 44.86 131.49 55.43 138.06 44.64 120.5 34.07 113.93 44.86"/><polygon class="cls-20" points="122.14 31.37 139.7 41.95 146.26 31.16 128.71 20.58 122.14 31.37"/><polygon class="cls-21" points="130.35 17.89 147.9 28.46 154.46 17.68 136.91 7.1 130.35 17.89"/><polygon class="cls-5" points="99.54 71.22 119.43 76.53 139.82 7.12 119.94 1.79 99.54 71.22"/><polygon class="cls-22" points="103.23 58.64 123.12 63.96 126.67 51.88 106.78 46.56 103.23 58.64"/><polygon class="cls-23" points="107.67 43.54 127.56 48.87 131.1 36.79 111.22 31.47 107.67 43.54"/><polygon class="cls-24" points="112.11 28.45 131.99 33.78 135.53 21.71 115.65 16.37 112.11 28.45"/><polygon class="cls-25" points="116.54 13.36 136.42 18.69 139.97 6.62 120.09 1.28 116.54 13.36"/><polygon class="cls-5" points="100.6 72.58 121.37 72.26 122.93 0.52 102.16 0.81 100.6 72.58"/><polygon class="cls-26" points="100.88 59.58 121.65 59.27 121.92 46.79 101.15 47.1 100.88 59.58"/><polygon class="cls-27" points="101.22 43.98 121.99 43.67 122.26 31.19 101.49 31.5 101.22 43.98"/><polygon class="cls-28" points="101.56 28.38 122.33 28.07 122.6 15.6 101.83 15.9 101.56 28.38"/><polygon class="cls-29" points="101.9 12.78 122.67 12.48 122.94 0 102.17 0.29 101.9 12.78"/><path class="cls-30" d="M105.82,68.45C98,72.81,91.64,79.8,89,88.53c-.92,3-1.69,10.74,3.73,8.32,2.36-1.06,4.34-3.5,6-5.47a54.85,54.85,0,0,0,4.53-6.22.7.7,0,1,1,1.18.75A54.39,54.39,0,0,1,99.17,93c-1.76,2.06-3.93,4.59-6.57,5.47-3.47,1.14-5.66-1.42-5.78-4.78-.19-5.24,2.46-10.68,5.38-15a38,38,0,0,1,13-11.52C106,66.74,106.63,68,105.82,68.45Z"/><polygon class="cls-2" points="232.2 87.52 264.59 125.19 254.56 134.14 231.68 129.07 212.68 106.98 232.2 87.52"/><polygon class="cls-3" points="242.33 96.77 262.15 120.33 262.18 126.65 253.05 134.8 229.39 129.5 219.35 117.58 242.33 96.77"/><polygon class="cls-4" points="253.32 104.56 309.76 169.71 276.76 186.77 226.32 128.66 253.32 104.56"/><path class="cls-1" d="M172.21,85.45l19.06,14.83c2.45,1.9,13.71,6.59,15.87,4.19S203.2,94.79,200.7,93l-14.11-9.64C178.49,77.78,174.27,82.6,172.21,85.45Z"/><path class="cls-2" d="M165.19,45.71,183.5,67.15c-.43-4.81,6.26-7.77,10-4.32-1.11-4.85,5-8.14,9-5.7-.29-4.67,6.49-7.36,9.85-3.4l15.39,18.12c4.31,5.08,7.07,14.1,7.07,18.65,0,13.48-16.11,19.22-22.9,17.32-5.3-1.48-9.26-1.94-11.62-4.62L157.13,53.07C151.61,46.76,160.8,40.4,165.19,45.71Z"/><path class="cls-1" d="M191.39,75.64v0c-.74-.78-5.77-6.07-7.89-8.51,0,0,0,0,0-.14a4.63,4.63,0,0,1,.08-1.24C186.31,69.12,190.7,74.75,191.39,75.64Zm.4-13.88v.06l-.09-.1Zm0,.06v-.06a5.83,5.83,0,0,1,1.68,1.07,4.52,4.52,0,0,1-.13-.94c3,3.55,6.65,8,6.65,8S194.92,65,191.79,61.82Zm-.4,13.84v0l.1.12Zm16.7-12.43s-3-3.66-5.64-6.89a4.13,4.13,0,0,0,0,.79,5.43,5.43,0,0,0-1.09-.52C204.36,59.63,208.09,63.23,208.09,63.23Z"/><path class="cls-2" d="M77.41,105.2a5.17,5.17,0,0,0,7.53.4L104,86.26a5.67,5.67,0,0,0,.67-7.65,5.28,5.28,0,0,0-7.52-.4L78.08,97.55C76,99.7,75.52,103,77.41,105.2Z"/></g></g></svg>