<svg xmlns="http://www.w3.org/2000/svg" xmlns:xlink="http://www.w3.org/1999/xlink" viewBox="0 0 365.61 386"><defs><style>.cls-1,.cls-7{fill:#3f3f3f;}.cls-1{clip-rule:evenodd;}.cls-18,.cls-2{fill:#e5e5e5;}.cls-11,.cls-12,.cls-13,.cls-14,.cls-15,.cls-16,.cls-17,.cls-2,.cls-3,.cls-4,.cls-5,.cls-6,.cls-7,.cls-9{fill-rule:evenodd;}.cls-3{fill:#fff;}.cls-4{fill:#b2b2b2;}.cls-5{fill:#fdd3a3;}.cls-6{fill:#d53535;}.cls-8{clip-path:url(#clip-path);}.cls-10,.cls-9{fill:none;stroke:#b2b2b2;stroke-linecap:round;stroke-linejoin:round;}.cls-11{fill:#8b8d8e;}.cls-12{fill:#d3a169;}.cls-13{fill:#a2a2a2;}.cls-14{fill:#ffe4c6;}.cls-15{fill:#e58918;}.cls-16{fill:#f2a40c;}.cls-17{fill:#4e94cf;}</style><clipPath id="clip-path"><path class="cls-1" d="M140.33,275l-8.7-56.66a.18.18,0,0,1,.12-.22l86.76-12.79c.09,0,.17.06.19.17l8.7,56.67c0,.11,0,.21-.12.22L140.52,275.2A.19.19,0,0,1,140.33,275Z"/></clipPath></defs><title>computer</title><g id="Layer_2" data-name="Layer 2"><g id="Layer_1-2" data-name="Layer 1"><polygon class="cls-2" points="39.26 139.76 201.45 116.85 210.71 179.62 48.53 202.53 39.26 139.76"/><polygon class="cls-3" points="39.26 139.76 201.45 116.85 200.94 113.41 38.75 136.32 39.26 139.76"/><path class="cls-4" d="M66.9,191.29l5.11,3-4.58.65ZM59.45,187l-5.83.82,1.31,8.9,10.41-1.47-.78-5.28Zm-6.52-3.79,2.76,1.6-2.47.35Zm11.63,6.76L64,186.31l-4.58.65Zm14.84-.41,5.11,3-4.58.64ZM72,185.19l-5.84.83.78,5.27,5.11,3,5.84-.82-.78-5.27ZM55.63,175.7,68.19,183l-12.5,1.77-2.76-1.6-1-6.95Zm-4.16-2.42.4.23-.35.05ZM78.9,186.11l9.92,5.78-4.31.61-5.11-3Zm-2.63-1.53.29.18.51,3.41-5.11-3Zm-4.07-2.36.3.17-.27,0ZM60,175.09,70.12,181l.25,1.69-2.18.3-12.56-7.3Zm-9-5.22,5.21,3-4.31.61-.4-.23Zm25.59,14.89,0-.21-.26,0Zm15.34,3,5.12,3-4.58.65Zm-7.44-4.33-5.84.82.28,1.86,9.92,5.78,1.53-.22-.78-5.27Zm-13.21-7.69,9.44,5.5-8.19,1.15-.3-.17Zm-3.11-1.81L60,175.09,70.12,181l-1-6.48Zm-16.32-9.49,12.55,7.3-8.19,1.16-5.21-3-.77-5.21Zm17.34,10.09-1-.6.92-.13Zm22.32,10.34,9.18,5.35-3.64.51-5.12-3Zm-3.37-2,1,.61.42,2.88-5.11-3Zm-4.8-2.79,1,.6-.93.13Zm-11.52-6.7,9.43,5.48.33,2.22-.86.12-9.44-5.5-.33-2.2Zm-16.33-9.5L68,171.22l-3.65.52-12.55-7.3Zm-5.87-3.42,2.11,1.23-1.89.27Zm39.56,23-.11-.74-.93.13Zm15.53,4.29,2.54,1.48-2.28.32Zm-10-5.82,7.69,4.47.5,3.45-2.19.31-9.18-5.35-.35-2.38Zm-12.12-7.05,8.35,4.85-6.55.93-1-.6Zm-4.2-2.45-6.55.93,9.43,5.48-.76-5.18Zm-5.89-3.42,2.12,1.23-1.9.27ZM62,163l-6.56.93L68,171.22l2.86-.4-.43-2.92Zm-13.2-7.67,9.43,5.48-6.55.93-2.11-1.23Zm31.64,18.4-2.12-1.23,1.89-.27Zm24,12.27,5.11,3-2.3.32-2.54-1.48ZM97,181.66l5.12,3,.27,1.82L94.66,182Zm-14.69-8.55,10.4,6,.06.38-1.84.25-8.35-4.85Zm-10.09-5.87,4.7,2.73-2.31.33-2.12-1.23Zm-7.86-4.57,5.86,3.41.27,1.82L62,163ZM48.55,153.5l11.64,6.76,0,.26-2,.28-9.43-5.48Zm55.51,30.13,8.45,4.91-3,.43-5.11-3ZM100,181.24l1.78,1,.35,2.37-5.12-3ZM94.41,178l1.77,1-1.59.22Zm-10.78-6.28,8.69,5.06.35,2.36-10.4-6L82.1,172Zm-11.8-6.86,8,4.67-3,.42-4.7-2.73Zm-4.52-2.63,2.52,1.47.35,2.36-5.86-3.41Zm-5.14-3,1.37.8-1.23.17ZM51,152.75l8.86,5.15.35,2.36L48.55,153.5l0-.4Zm18.85,11-2.52-1.47,2.26-.32Zm31.9,18.55-.19-1.26-1.59.23Zm3.89-1.83,12.56,7.3-5.67.8-8.45-4.91-.43-2.91Zm-11.87-6.91,8.1,4.72-5.67.8-1.77-1Zm-4.45-2.59-5.67.8,8.69,5.06-.66-4.48Zm-6.13-3.56,2.36,1.37-2.11.3ZM73,161.45l8.19,4.76.45,3.09-1.76.25-8-4.67-.47-3.21Zm-11.47-6.68.66,4.49,1.37.8,5.67-.81ZM56.65,152l2.53,1.47.66,4.48L51,152.75Zm-9.11-5.3L52,149.23l-4,.56Zm11.64,6.77L56.65,152l2.26-.32Zm32.48,18.9-.25-1.68-2.11.3Zm20.43,7.2-6.47.92,12.56,7.3,6.47-.91Zm-6.61-3.84,2.84,1.65-2.55.36ZM95.77,170l7.62,4.43.52,3.5-2.06.29-8.1-4.72-.47-3.15Zm-13.36-7.77L92,167.84l-6.47.91-2.36-1.37Zm-3-1.73-6.47.92,8.19,4.76-.76-5.12Zm-4.73-2.75,1,.56-.86.12ZM63.12,151l9.26,5.38.35,2.34-3.52.49-7.7-4.48L61,151.34Zm-10.95-6.38,6.25,3.64v0l-6.44.91-4.44-2.58-.19-1.31Zm28.24,16.43-1-.56.86-.12Zm36.17,17.8,12.56,7.3-4.49.64-12.56-7.31ZM105,172.12l7.87,4.58-4.5.63-2.84-1.65Zm-4.69-2.73,2.61,1.52.52,3.55L95.77,170Zm-6.37-3.7,2.6,1.51-2.33.33Zm-10-5.79,7.94,4.62.49,3.27-.37.05-9.59-5.58-.31-2.1Zm-9.75-5.67,6,3.48-4.49.63-1-.56Zm-6.57-3.83,4.24,2.47.52,3.55L63.12,151Zm-7.39-4.3,2.71,1.58-2.43.34ZM56.66,144l1.24.72.52,3.55-6.25-3.64Zm1.24.72L56.66,144l1.11-.16Zm14,8.12-.44-3-3.8.54Zm20,11.65-.83-5.63-7.11,1Zm11,6.39-.28-1.85-2.33.33Zm26.22,6.21,12.55,7.31-12.5,1.76-12.56-7.3ZM116,169.5l1,6.61,8.37-1.18Zm-3.22-1.87,1.13.65,1.2,8.1-2.27.32L105,172.12l-.49-3.32Zm-8.34-4.85.48,3.23,4.1-.57Zm-8-4.65,6,3.48.69,4.66-6.62.93-2.6-1.51-1-7.05Zm-9.75-5.67.63,4.24,5.36-.76Zm-6.57-3.82,4.24,2.46.87,5.89-5.06.72-6-3.48-.69-4.66Zm-7.39-4.3,2.71,1.57-2.43.35Zm-3.57-2.08,1.24.72.53,3.57-8,1.13-2.71-1.58-.37-2.52Zm1.24.72-1.24-.72,1.11-.15Zm14,8.12-.44-3-3.8.54Zm18.06,10.51-.62-4.24-5.36.76Zm11.47,6.67-1.13-.65,1-.15Zm22.7,7.78,12.55,7.31-7.5,1.06-12.55-7.31Zm-9-5.23.54,3.7,4.69-.66Zm-7.33-4.26,5.24,3,.77,5.19-1,.13L116,169.5l-.34-2.28Zm-4.71-2.75,1,.56-.85.12Zm-11.61-6.75,9.6,5.59.31,2.09-4.85.69-4.58-2.66-.83-5.66Zm-4.16-2.42.4.23-.36.05Zm-12.16-7.07,9.83,5.71.28,1.94-5,.71-6-3.48L86,147.8Zm-11-6.38,6.28,3.65-7.5,1.06-2.71-1.57-.37-2.53Zm48.84,28.41-5.24-3,4.69-.67Zm16.78,5.65,10.36,6,.23,1.55-3.73.53-12.55-7.31Zm-15.36-8.93,10.4,6,.12.84-4.62.65-5.23-3Zm-12-7,.67,4.5,1,.56,5.69-.81Zm-5.25-3,3.25,1.89.66,4.5-9.6-5.59Zm-10.51-6.12.66,4.5.4.23,5.68-.8Zm-5.81-3.38,3.48,2,.66,4.5-9.83-5.71ZM85.15,142l3.48,2-3.11.44Zm-2.8-1.63.47.27.61,4.12-.49.06-6.28-3.65Zm.47.27-.47-.27.42-.06Zm14,8.12-3.48-2,3.11-.44Zm16.09,9.37-3.25-1.89,2.91-.41Zm41.3,19.15,7.39,4.3-6.61.94Zm-5.16-3-6.74.95,10.36,6-.79-5.33Zm-10.4-6.05,6.63,3.86-5.94.84Zm-5.92-3.45-5.88.83.1.69,10.4,6-.79-5.34ZM126.09,161l2.84,1.65-2.54.36Zm-9.72-5.65,7.72,4.48.51,3.43-2.41.34-7.31-4.25-.55-3.72Zm-4.08-2.38.32.18-.28,0Zm-12.24-7.12,9.91,5.77.28,1.87-4.38.62-6.74-3.93L98.51,146Zm-11-6.38,6.27,3.66-6.74,1-3.48-2-.29-2ZM136.53,167l-3.83-2.23,3.43-.48ZM151.85,176,149,174.31l2.54-.36Zm1.82-2.14,11.63,6.77.07.49-3.8.53-7.39-4.3Zm-15.57-9,10.4,6,.12.82-3.37.48-6.63-3.86Zm-12.52-7.29,7.76,4.52-4.41.62L126.09,161Zm-4.79-2.79,2.78,1.62.52,3.49-7.72-4.48Zm-9-5.24L117,152.5l-4.41.62-.32-.18Zm-7.31-4.26,5,2.9.51,3.5-9.91-5.77Zm-6.65-3.86,2,1.14-1.77.25Zm-4.31-2.51,2,1.15.45,3.05-.56.08-6.27-3.66Zm2,1.15-2-1.15,1.77-.25Zm14,8.12-.52-3.52-4.46.62Zm14.12,8.22-.29-2-2.49.35Zm43.25,20.1.64,4.37L173,180Zm-6.39-3.71,4,2.35.82,5.54-11.63-6.77,0-.17Zm-10.66-6.2.72,4.88,6.17-.88Zm-5.66-3.3,3.58,2.08.81,5.54-10.4-6-.1-.71Zm-7.35-4.28.37,2.54,3.21-.45Zm-9-5.22,7,4.06.59,4-2,.29-7.76-4.52-.5-3.39Zm-16.32-9.49,11.13,6.47.15,1-5.72.81-5.24-3.05-.77-5.18Zm-10.95-6.38,6.27,3.66-7,1-2-1.14-.45-3.05Zm47.18,27.45-3.58-2.08,3.2-.45Zm18.71,8.34,10.11,5.88L173,180l-6.16-3.59ZM164,172.2l.11.07.41,2.78-4-2.35Zm-14.6-8.49,10.4,6,0,.3-3.14.44-6.89-4Zm-13-7.57,7.52,4.37-3.53.5-3.58-2.09Zm-5-2.93,3,1.76.41,2.79-7-4.06Zm-6.8-4,3,1.76-2.71.39ZM115,143.71l7.19,4.18.41,2.79-11.13-6.47Zm-11-6.37,4.19,2.43.22,1.48-1.66.24-6.27-3.66ZM134.34,155l-3-1.76,2.72-.39Zm29.73,17.3-.11-.07.1,0Zm3.21-.54,10.37,6,.23,1.55-1.37.19-10.11-5.88-.25-1.73Zm-5.82-3.39,2.06,1.2-1.85.26ZM151,162.23l8.41,4.89.39,2.64-10.4-6-.18-1.23Zm-15-8.73,10,5.82.13.88-2.21.31-7.52-4.37Zm-11.83-6.88,6.74,3.92-3.33.47-3-1.76Zm-5.81-3.38,3.47,2,.39,2.63L115,143.71Zm-8.16-4.74,3.48,2-3.11.44Zm-2.8-1.63.47.27.39,2.63L104,137.34Zm.47.27-.47-.27.42-.06Zm14,8.12-3.47-2,3.11-.44Zm57.71,30.61,4.45,2.58-4,.56Zm-8.11-4.72,5.78,3.36.48,3.25-10.37-6ZM161,165.09l6.64,3.87-4.1.58-2.06-1.2Zm-5.91-3.44,3.82,2.23.48,3.24L151,162.23Zm-7.59-4.41,3.82,2.22-3.42.48Zm-8.74-5.08,6.73,3.91.48,3.25-10-5.82-.14-.93Zm-15.09-8.79L135,150l-4.11.58-6.74-3.92Zm-12.18-7.08,6.27,3.65-4.1.58-3.48-2-.29-2Zm47.42,27.59-3.82-2.23,3.42-.48ZM179,172.55l9.13,5.31-4.19.59-4.45-2.58Zm-3.43-2,1.1.63.49,3.32-5.78-3.36Zm-15.09-8.78,10.4,6.05.09.65-3.36.48L161,165.09ZM147,153.92l8.5,5-4.19.59-3.82-2.22Zm-4.06-2.36,2,1.2.49,3.31-6.73-3.91Zm-5.81-3.38,2,1.19-1.84.26Zm-10.51-6.11,8.18,4.75.46,3.11-.27,0-11.33-6.59-.13-.87Zm-11-6.38,5.16,3,.12.79-3.2.45-6.27-3.65ZM145,152.76l-2-1.2,1.84-.26Zm31.7,18.43-1.1-.63,1-.14Zm3.11-1.23,10.36,6,.23,1.55-2.24.32L179,172.55l-.36-2.43Zm-7.31-4.25,3.54,2.06-3.17.45Zm-9-5.25,6.94,4,.49,3.33-10.4-6.05-.13-.88Zm-5-2.89,1.21.7-1.08.16ZM147.14,151l9.35,5.44.33,2.27-1.33.19-8.5-5-.43-2.87Zm-10.51-6.12,6.75,3.93-4.21.59-2-1.19Zm-5.81-3.38,3.48,2,.49,3.33-8.18-4.75Zm-8.15-4.74,3.47,2-3.11.44Zm-2.81-1.63.47.27.49,3.33-5.16-3Zm.47.27-.47-.27.42-.06Zm14,8.12-.37-2.46-3.11.44Zm36.1,21-.73-4.91-6.21.87Zm21.22,7,8.14,4.74-7.29,1Zm-4.42-2.57L179.79,170l10.36,6-.87-5.87Zm-15.58-9.07L182,165.9l.15,1-6.14.87-3.54-2.06Zm-14-8.13,9.48,5.52-7.41,1-1.21-.7Zm-3.07-1.79L147.14,151l9.35,5.44-.87-5.87Zm-4.83-2.81,1.06.62-.95.14Zm-11.49-6.69,9.15,5.33.36,2.41-4.37.62-6.75-3.93-.61-4.11Zm-11-6.37,6.15,3.58v.09l-7.3,1-3.47-2-.3-2Zm28.34,16.49-1.06-.62.95-.13Zm35.85,20L201,176l-1.23.18-8.14-4.74Zm-3-1.77.71.41.14,1-2.08-1.21Zm-4.47-2.6.71.41-.64.09Zm-11.85-6.9,9.76,5.68.14,1-10.39-6.06-.08-.52Zm-14.63-8.51,10,5.82.09.61-.46.07-9.48-5.52Zm-7.9-4.59,2.44,1.42-1.23.17-1.06-.62Zm-10.11-5.89,7.78,4.53.14,1-9.15-5.33Zm-11-6.37,4.78,2.78.14,1-6.15-3.58Zm60.63,35.27-.71-.41.64-.09Zm2-.63,11.63,6.77.07.49L201,176l-9.52-5.53Zm-7.52-4.37,3.52,2-2.51.36-.71-.41Zm-9-5.26,7,4.05.29,2-9.76-5.68Zm-5.43-3.16,1.66,1-1.49.21Zm-10.89-6.34,8.88,5.17.3,2-10-5.82-.17-1.2Zm-9-5.24,5.24,3-2.51.36-2.44-1.42ZM142,139.9l5,2.89.29,2-7.78-4.53ZM135.33,136l2,1.15-1.77.24ZM131,133.52l2,1.15.3,2-4.78-2.78Zm2,1.15-2-1.15,1.77-.25Zm61.69,33.19,7.69,4.47.44,3-11.63-6.77,0-.17Zm-11.45-6.67,7.69,4.48-3.74.52-3.52-2Zm-4.87-2.83,2.78,1.62.44,3-7-4.05Zm-9.61-5.59,5.84,3.4-3.74.53-1.66-1ZM162,148.86l4.71,2.74.43,3-8.88-5.17Zm-13.19-7.67,9.42,5.48-3.74.53-5.24-3Zm-3.13-1.82.8.47.44,2.95-5-2.89Zm-10.83-6.3,6.15,3.58-3.74.53-2-1.15Zm11.63,6.77-.8-.47.72-.1ZM181.14,160l-2.78-1.62,2.49-.35Zm17.69,7.29,3.06,1.78.48,3.28-7.69-4.47Zm-16.09-9.36,12.32,7.17-4.14.59-7.69-4.48Zm-14.47-8.42,10,5.82.05.33-3.72.53-5.84-3.4Zm-2.09-1.21.08.05.49,3.27L162,148.86ZM162.33,146l.09.05h-.08Zm-12.47-7.26,10.14,5.9.25,1.71-2,.28-9.42-5.48-.32-2.22Zm-11-6.37,6.28,3.65-4.14.59-6.15-3.58V133Zm27.36,15.92-.08-.05h.08Zm35.63,20.72-3.06-1.78,2.74-.39Zm-14.77-11.93,12.56,7.31-4.62.65-12.32-7.17,0-.16Zm-16.32-9.49,6.92,4,.54,3.66-10-5.82-.22-1.47Zm-9-5.24,5.25,3.05-4.62.65-.09-.05Zm-7.31-4.26,5,2.9.54,3.65-10.14-5.9Zm-6.65-3.87,2,1.15-1.76.25Zm-4.31-2.5,2,1.14.45,3-.77.11-6.28-3.65Zm39.84,23.17-3.25.46-.38-2.57Zm-37.86-22-2-1.14,1.77-.25Zm14,8.13-5-2.9,4.46-.63Zm32.41,15.42,8.93,5.2.38,2.57-1.5.21-12.56-7.31ZM175.55,147l-4.75.67,6.92,4-.55-3.75Zm-14.31-8.33,10.54,6.13-4.74.68-5.25-3.05Zm-13-7.54,6.28,3.65-4.75.67-2-1.15-.45-3Zm39.83,23.17-4.74.67-3.63-2.11-.56-3.75Zm-10.93-6.36-1.62-.94,1.45-.21Zm22.34,7.47-7.64,1.08,8.93,5.2-.9-6.05Zm-25.2-14.66.54,3.62,4.57-.64Zm-7.44-4.33,5.11,3,.78,5.28-1,.13-10.54-6.13-.21-1.42Zm-6.52-3.79,1.84,1.07-1.65.23ZM155.91,130l2.1,1.22.44,3-3.9.55-6.28-3.65Zm22.88,16.49,4.4-.62,12.55,7.3-7.64,1.08-8.93-5.19ZM158,131.23l-2.1-1.22,1.89-.27Zm14,8.12-5.11-3,4.57-.65ZM199.9,155.6l-.39-.23.35-.05Zm-26.2-19L184.62,143l-5.2.74-5.11-3Zm-12.59-7.33,6.27,3.66-5.19.73-1.84-1.07-.47-3.14Zm22.08,16.61,5.19-.74,10.92,6.35.17,1.17-3.73.52Zm3.45-8.09.71,4.78,6-.86Zm-5.81-3.38-7.3,1,.17,1.16L184.62,143l.64-.09-.95-6.43Zm-8.15-4.75,3.48,2-3.12.44Zm-2.8-1.63.47.28.61,4.11-3.58.51-6.27-3.66Zm18.5,17.11,8.78-1.24,1.11.65,1,6.94Zm-18-16.83-.47-.28.42-.06Zm14,8.12L184,134l-3.12.44Zm7.68-3.6,5,2.9.79,5.36-4.37.62-6.75-3.92-.6-4.12ZM185.34,129l2,1.15-1.76.25Zm-4.3-2.5,2,1.15.45,3-7.3,1-3.48-2-.29-2Zm16.12,17.44,1-.14.11.79ZM183,127.61l-2-1.15,1.76-.25Zm4.3,2.5,8.65-1.22-.65-4.45-10.42,1.47.45,3.05Zm9.66,5.62-5-2.9,4.46-.63Z"/><polygon class="cls-5" points="71.58 217.61 94.6 218.9 93.09 251.22 70.07 249.94 71.58 217.61"/><path class="cls-5" d="M97.26,196.47c-.17,2.74-.32,6.08-.53,10l8-10.92c3.56-4.85,8.64-2.56,10.07,0L98.35,222.32c-2.33,3.78-8.77,5.39-14.91,5.22-12.69-.35-20-9.09-19.46-26.6l-4.1-26.84c-.87-5.74,7.18-6.86,8-1.06l2.74,19a5,5,0,0,1,1-.79l-1.27-25.32c-.29-5.86,7.78-5.46,8.07-.54l1.36,23.38a7,7,0,0,1,.9,0l.71-26.83c.15-5.4,8.23-5.06,8.09.3l-.76,28.73c.35.21.7.43,1,.67L93.23,164c.67-5.25,8.72-4.34,8,1.13Z"/><polygon class="cls-3" points="68.46 228.33 96.7 229.9 96.15 241.74 67.91 240.17 68.46 228.33"/><polygon class="cls-6" points="60.12 346.56 92.2 386 98.97 241.9 65.09 240.01 60.12 346.56"/><path class="cls-2" d="M127.45,204.93l92.94-13.7a6.54,6.54,0,0,1,7.36,5.48l9.63,62.72a6.43,6.43,0,0,1-5.38,7.36l-92.94,13.7A6.54,6.54,0,0,1,131.7,275l-9.63-62.72A6.43,6.43,0,0,1,127.45,204.93Z"/><path class="cls-7" d="M140.33,275l-8.7-56.66a.18.18,0,0,1,.12-.22l86.76-12.79c.09,0,.17.06.19.17l8.7,56.67c0,.11,0,.21-.12.22L140.52,275.2A.19.19,0,0,1,140.33,275Z"/><g class="cls-8"><polygon class="cls-9" points="144.9 218.79 175.56 214.43 206.22 210.07 212.31 251.03 218.39 291.98 187.72 296.34 157.06 300.7 150.98 259.75 144.9 218.79"/><polygon class="cls-9" points="144.9 218.79 175.56 214.43 206.22 210.07 206.82 214.05 176.15 218.41 145.49 222.77 144.9 218.79"/><polygon class="cls-9" points="162.24 222.85 176.51 220.83 190.78 218.8 191.68 224.86 177.41 226.89 163.14 228.92 162.24 222.85"/><polygon class="cls-9" points="147.8 238.34 178.46 233.98 209.13 229.62 211.61 246.32 180.94 250.68 150.28 255.04 147.8 238.34"/><polygon class="cls-9" points="159.25 234.48 178.14 231.79 197.02 229.11 196.65 226.57 177.76 229.25 158.88 231.94 159.25 234.48"/><polygon class="cls-9" points="156.5 271.36 164.19 270.27 171.89 269.17 169.89 255.67 162.19 256.77 154.49 257.86 156.5 271.36"/><polygon class="cls-9" points="175.75 268.62 183.44 267.53 191.14 266.44 189.14 252.94 181.44 254.03 173.74 255.13 175.75 268.62"/><polygon class="cls-9" points="194.99 265.89 202.69 264.79 210.39 263.7 208.39 250.2 200.69 251.29 192.99 252.39 194.99 265.89"/><polygon class="cls-9" points="155.98 293.42 186.64 289.07 217.31 284.7 218.39 291.98 187.72 296.34 157.06 300.7 155.98 293.42"/><polygon class="cls-9" points="157.15 275.75 164.84 274.66 172.55 273.56 172.17 271.02 164.47 272.12 156.77 273.21 157.15 275.75"/><polygon class="cls-9" points="157.8 280.12 165.49 279.02 173.19 277.93 172.82 275.39 165.11 276.48 157.42 277.58 157.8 280.12"/><polygon class="cls-9" points="158.44 284.47 166.14 283.38 173.84 282.29 173.46 279.75 165.76 280.84 158.07 281.94 158.44 284.47"/><polygon class="cls-9" points="159.09 288.84 168.84 287.45 168.46 284.92 158.71 286.3 159.09 288.84"/><polygon class="cls-9" points="176.4 273.02 184.09 271.92 191.8 270.83 191.42 268.29 183.72 269.38 176.02 270.48 176.4 273.02"/><polygon class="cls-9" points="177.05 277.38 184.74 276.29 192.44 275.19 192.07 272.65 184.36 273.75 176.67 274.84 177.05 277.38"/><polygon class="cls-9" points="177.69 281.74 185.39 280.64 193.09 279.55 192.71 277.01 185.01 278.1 177.32 279.2 177.69 281.74"/><polygon class="cls-9" points="178.34 286.1 188.09 284.72 187.71 282.18 177.96 283.56 178.34 286.1"/><polygon class="cls-9" points="195.65 270.28 203.34 269.18 211.04 268.09 210.67 265.55 202.97 266.65 195.27 267.74 195.65 270.28"/><polygon class="cls-9" points="196.29 274.64 203.99 273.55 211.69 272.46 211.32 269.92 203.61 271.01 195.92 272.11 196.29 274.64"/><polygon class="cls-9" points="196.94 279 204.64 277.91 212.34 276.81 211.96 274.27 204.26 275.37 196.56 276.46 196.94 279"/><polygon class="cls-9" points="197.59 283.37 207.34 281.98 206.96 279.44 197.21 280.83 197.59 283.37"/><path class="cls-10" d="M204.43,237.15a.3.3,0,0,1,0-.4.23.23,0,0,1,.35,0l1.52,1.62,0,0h0v0h0s0,0,0,0v0h0v.06h0v0h0v0l-1,2a.23.23,0,0,1-.34.1.29.29,0,0,1-.1-.38l.89-1.8Z"/><path class="cls-10" d="M154.05,244a.23.23,0,0,1,.34-.1.3.3,0,0,1,.1.38l-.89,1.8,1.37,1.47a.31.31,0,0,1,0,.4.23.23,0,0,1-.35,0l-1.52-1.62,0,0h0s0,0,0,0h0s0,0,0,0,0,0,0,0v0h0V246h0v0h0l0,0Z"/></g><path class="cls-11" d="M204.51,201l13.4-2c.36-.05.73.35.81.89s-.14,1-.51,1.09l-13.39,2c-.37.06-.73-.34-.81-.89S204.15,201,204.51,201Z"/><path class="cls-3" d="M256.32,231.76a2.56,2.56,0,0,1,1.14,3.4,2.49,2.49,0,0,1-3.37,1.12,2.56,2.56,0,0,1-1.14-3.41A2.49,2.49,0,0,1,256.32,231.76Z"/><path class="cls-12" d="M202.68,255.37a4.35,4.35,0,0,1,.56-6.15l17.95-13.92a4.38,4.38,0,0,1,5.56,6.78l-18,13.91A4.38,4.38,0,0,1,202.68,255.37Z"/><path class="cls-12" d="M211.08,260.22a4.37,4.37,0,0,1-.42-6.17l15.5-16.63a4.37,4.37,0,0,1,6.55,5.8l-15.5,16.64A4.39,4.39,0,0,1,211.08,260.22Z"/><polygon class="cls-12" points="250.46 258.99 239.14 232.96 216.57 233.26 206.35 243.71 236.56 264.51 250.46 258.99"/><path class="cls-12" d="M220.3,264.75a4.39,4.39,0,0,1-2.07-5.84l10.4-20.29a4.36,4.36,0,0,1,5.78-2,4.42,4.42,0,0,1,2.07,5.84l-10.4,20.28A4.36,4.36,0,0,1,220.3,264.75Z"/><path class="cls-5" d="M246.38,253.34c8.93,1.53,11.27,15.57,7.59,20.94s-12.28,5.23-20.07.39-9-13.95-7-16.72S237.45,251.82,246.38,253.34Z"/><path class="cls-5" d="M253,263c-2,1.32-5.13,1-6-1.26l-10.84-27.24c-.89-2.23-.79-4.74,1.2-6.05a4.36,4.36,0,0,1,6,1.25l10.84,27.25C255,259.17,254.94,261.67,253,263Z"/><path class="cls-5" d="M216.29,230.38a4.36,4.36,0,0,1,4.73-3.9l18.69,1.24a4.37,4.37,0,0,1,3.92,4.8,4.32,4.32,0,0,1-4.73,3.9l-18.69-1.24A4.39,4.39,0,0,1,216.29,230.38Z"/><path class="cls-5" d="M196.83,245.27a4.34,4.34,0,0,1,1.22-6.05l19.35-11.89a4.38,4.38,0,0,1,4.8,7.33l-19.35,11.88A4.41,4.41,0,0,1,196.83,245.27Z"/><path class="cls-5" d="M231.05,236.19c2.07,3.58,10.06,18.1-.28,18.57s13.55,12.87,13.55,12.87l5.37-16.15S245.62,235.93,231.05,236.19Z"/><path class="cls-3" d="M192.26,245.47,186,248.82c-1,.52-.91,1.23.3,1.3l7.06.48.25-2.91Z"/><polygon class="cls-13" points="192.26 245.47 254.55 231.48 255.85 236.55 193.37 250.6 192.26 245.47"/><polygon class="cls-5" points="250.14 252.07 236.43 269.36 245.73 279.47 261.29 263.75 250.14 252.07"/><polygon class="cls-3" points="261.26 260.58 241.27 280.42 247.41 286.69 267.4 266.85 261.26 260.58"/><polygon class="cls-6" points="349.76 379.27 245.42 288.67 269.4 264.87 365.61 347.17 349.76 379.27"/><path class="cls-5" d="M234.43,262a5,5,0,0,1-6.8,2.34l-22-12.82a5.34,5.34,0,0,1-2.38-6.88,5.07,5.07,0,0,1,6.81-2.33l22,12.82A5.33,5.33,0,0,1,234.43,262Z"/><path class="cls-14" d="M205.35,250.3l2,1.11c3.07-1.34,4.26-3.74,3.9-7l-1.87-1.1C204.27,240.32,201.1,248,205.35,250.3Z"/><path class="cls-14" d="M202.65,236.64c-.45,4-5.34,5-6.21,5.21C196.58,239.54,200.07,238,202.65,236.64Z"/><path class="cls-3" d="M7.44,26.71l94-13.29,94-13.28c5.31-.75,9.43,1.61,9.18,5.25l-2.37,35.09-2.38,35.09c-.25,3.63-4,7.1-8.37,7.71L114.49,94.17,37.4,105.06c-4.35.62-9-1.66-10.38-5.07Q20.36,83.57,13.66,67.13T.32,34.26C-1.06,30.85,2.14,27.46,7.44,26.71Z"/><path class="cls-3" d="M98.13,95.06l33.24-4.7q8.91,10.26,17.26,20.57l-30.25,4.27-30.23,4.27Q92.8,107.32,98.13,95.06Z"/><path class="cls-2" d="M8.62,30.94l94-13.28,94-13.29c5.31-.75,9.43,1.61,9.18,5.25l-2.38,35.1L201.12,79.8c-.25,3.64-4,7.1-8.37,7.72L115.67,98.41,38.58,109.3c-4.35.61-9-1.67-10.38-5.07Q21.54,87.79,14.84,71.37T1.5,38.49C.12,35.08,3.31,31.69,8.62,30.94Z"/><path class="cls-3" d="M6.79,35,103.24,21.4,199.69,7.77l-1.8,33.81Q197,58.49,196,75.39L113.81,87,31.61,98.62q-6.22-15.9-12.42-31.8T6.79,35Z"/><path class="cls-15" d="M191.36,81.09c.58-.08,1,.24,1,.71a1.18,1.18,0,0,1-1.06,1c-.56.08-1-.24-1-.71A1.18,1.18,0,0,1,191.36,81.09Z"/><path class="cls-15" d="M187.29,81.66c.59-.08,1,.24,1,.71a1.18,1.18,0,0,1-1,1c-.57.08-1.05-.25-1-.72A1.21,1.21,0,0,1,187.29,81.66Z"/><path class="cls-15" d="M183.21,82.24c.57-.08,1,.24,1,.71a1.14,1.14,0,0,1-1,1c-.57.08-1-.24-1-.71A1.18,1.18,0,0,1,183.21,82.24Z"/><path class="cls-3" d="M7.06,35.18l96.43-13.62L200,7.93q-.93,16.93-1.85,33.84T196.3,75.56L114.09,87.18Q73,93,31.89,98.78,25.7,82.9,19.48,67Z"/><path class="cls-16" d="M7.06,35.18l96.43-13.62L200,7.93c-.07,1.1-.13,2.21-.19,3.3L104,24.77,8.26,38.28Z"/><path class="cls-17" d="M60,33q22.17-3.15,44.38-6.27t44.38-6.27c.09,1.64.2,3.28.28,4.92L105.1,31.57,61.23,37.76C60.8,36.16,60.37,34.56,60,33Z"/><path class="cls-16" d="M13,50.38l93-13.13q46.53-6.57,93.07-13.16c-.24,4.59-.5,9.2-.75,13.78L108.18,50.62,18.06,63.35Q15.51,56.86,13,50.38Z"/><path class="cls-2" d="M48.2,43.61l57.54-8.12,57.55-8.13c0-.7,0-1.37-.06-2.06l-57.82,8.17q-28.89,4.08-57.8,8.16Z"/><path class="cls-16" d="M33.72,75c7.29-1,14.61-2.07,21.88-3.1l21.92-3.09q-1.33-5.34-2.65-10.69c-7.5,1.07-15,2.11-22.49,3.17L29.9,64.43Z"/><path class="cls-6" d="M88.47,67.22l21.87-3.1L132.26,61c-.4-3.63-.77-7.26-1.16-10.9L108.6,53.3,86.12,56.48Z"/><path class="cls-17" d="M143.21,59.47l21.89-3.09L187,53.3l.33-11.11-22.49,3.17-22.48,3.19Q142.77,54,143.21,59.47Z"/><path class="cls-16" d="M29.68,93.14q41.72-5.86,83.45-11.78l83.48-11.79c-.1,2-.22,4-.31,6L114.09,87.18Q73,93,31.89,98.78Z"/><path class="cls-2" d="M35,78.38l21.7-3.07,21.71-3.07-.49-2L56,73.31,34.23,76.4C34.48,77.05,34.71,77.72,35,78.38Z"/><path class="cls-2" d="M36.18,81.78q10.74-1.55,21.51-3c7.16-1,14.35-2,21.52-3l-.49-2-21.63,3L35.47,79.79Z"/><path class="cls-2" d="M37.42,85.17l21.32-3,21.32-3c-.16-.66-.33-1.32-.49-2l-21.44,3-21.43,3Z"/><path class="cls-2" d="M38.65,88.57l26.76-3.79-.58-2-26.9,3.79Z"/><path class="cls-2" d="M89.23,70.7l21.68-3.06,21.72-3.08c-.06-.67-.15-1.34-.21-2L110.59,65.6,88.78,68.69Z"/><path class="cls-2" d="M90,74.17l21.5-3,21.53-3c-.05-.69-.14-1.36-.21-2.06l-21.63,3.07-21.61,3C89.69,72.84,89.82,73.5,90,74.17Z"/><path class="cls-2" d="M90.74,77.64l21.32-3,21.32-3-.21-2-21.44,3-21.43,3C90.43,76.31,90.59,77,90.74,77.64Z"/><path class="cls-2" d="M91.48,81.11l26.77-3.79c-.1-.68-.19-1.35-.31-2Q104.51,77.2,91,79.08C91.18,79.76,91.33,80.44,91.48,81.11Z"/><path class="cls-2" d="M143.49,63,165.19,60,186.9,56.9c0-.68,0-1.39.06-2.09l-21.83,3.08L143.33,61C143.38,61.67,143.43,62.36,143.49,63Z"/><path class="cls-2" d="M143.77,66.58q10.74-1.55,21.5-3l21.51-3c.06-.7.07-1.37.09-2.08l-21.64,3.05-21.62,3.06Z"/><path class="cls-2" d="M144.06,70.1l21.32-3,21.32-3c0-.68,0-1.38.06-2.08l-21.44,3q-10.73,1.53-21.43,3C143.94,68.75,144,69.42,144.06,70.1Z"/><path class="cls-2" d="M144.32,73.65l26.76-3.79V67.78l-26.92,3.79C144.23,72.27,144.26,73,144.32,73.65Z"/><path class="cls-18" d="M181.72,32c-.25-.05-.2-.21.14-.33a2.57,2.57,0,0,1,1-.11c1.22.35,2.48.65,3.72,1l0,0h0s0,0,0,0v0s0,0,0,0,0,0,0,0h0v0h0l0,0h0s0,0,0,0h0v0s0,0,0,0l0,0h0s0,0-.06,0c-1.24.69-2.51,1.35-3.76,2a2.14,2.14,0,0,1-1,.18c-.33,0-.4-.16-.13-.3l3.41-1.82C184,32.63,182.83,32.35,181.72,32Z"/><path class="cls-18" d="M30.81,53.09a2.14,2.14,0,0,1,1-.18c.35,0,.44.15.22.28L29.13,55l3.81.79c.29,0,.29.2,0,.33a2.07,2.07,0,0,1-1,.09l-4.23-.87-.05,0h0s0,0,0,0a0,0,0,0,1,0,0h0s0,0,0,0,0,0,0,0h0v0h0a0,0,0,0,0,0,0,0,0,0,0,1,0,0l0,0h0a0,0,0,0,0,0,0h0l.05,0Z"/></g></g></svg>