<svg xmlns="http://www.w3.org/2000/svg" viewBox="0 0 74.41 84.79"><defs><style>.cls-1{fill:#4c4c4c;}.cls-1,.cls-2{fill-rule:evenodd;}.cls-2{fill:#fff;}</style></defs><title>glasses</title><g id="Layer_2" data-name="Layer 2"><g id="Layer_1-2" data-name="Layer 1"><path class="cls-1" d="M57.31,3.07C55,6.17,20.94,49.36,15.64,56.52S13,76.3,14.2,82s5,1.31,4.41-1.35c-1.32-6.15-3.79-16.48,1.2-23.72S60.09,6.24,61.1,5C62,3.94,58.41,1.58,57.31,3.07Z"/><path class="cls-1" d="M3.09,70.34C5.64,67.45,40.6,25,46.47,18.25s18.86-6.92,24.74-7,2.39,4.55-.36,4.58c-6.33.06-17-.06-23,6.36s-41,50.14-42,51.4C5,74.67,1.87,71.74,3.09,70.34Z"/><path class="cls-1" d="M3.77,68.72c.45-3.67,7.61-15.15,14.81-20.1l.94-.63v-3.2c-2.13,1.86-3.91,3.28-5.09,4.43C7.41,55.71.44,66.93,0,70.58a9,9,0,0,0,2.39,4.59c.28.32,1.38-.24,1.73.09a21.83,21.83,0,0,0,5.73,3.8,13.16,13.16,0,0,0,9.67.19V76.87c-2.92.9-5.73,1-7.94-.09C5.52,73.91,3.94,70.24,3.77,68.72ZM19.52,48c6.69-4.31,11.27-4.06,14,1.52,6,12.5-4.49,24.42-14,27.36v2.38C30.61,75.7,42,61.2,35.29,47.39c-1.66-3.46-.11-.24-.17-.35a5.94,5.94,0,0,1,1.2-5.47,6,6,0,0,1,5.11-2.37c.13,0-3.38-.76.39.1a20,20,0,0,0,10.65-.45v-2a17.29,17.29,0,0,1-9,.24c-6.37-1.45-7.44-6.18-4.15-14.24,2.5-6.14,8.73-13.08,13.11-16.6V3A68.59,68.59,0,0,0,39,18.69c-1.94,3.12-4.53,9.43-10.42,16.76a74.43,74.43,0,0,1-9.09,9.34Zm33-9.14v-2c12.14-3.65,18.28-20.34,13-27-4.15-5.24-8.1-6-9.64-5.79a13.31,13.31,0,0,0-3.39,2.15V3A16.91,16.91,0,0,1,56.86,0a9.06,9.06,0,0,1,5,1.3c.38.2.08,1.39.48,1.65a22,22,0,0,1,5,4.72C74,16.07,66.11,34.44,52.47,38.85Z"/><path class="cls-2" d="M55.86,4.09c-3.5,1.23-13.22,10.69-16.5,18.75s-2.22,12.79,4.15,14.24C61.3,41.15,71.92,18,65.5,9.88,61.35,4.64,57.4,3.92,55.86,4.09Z"/><path class="cls-2" d="M3.77,68.72c.45-3.67,7.61-15.15,14.81-20.1s12.08-4.95,14.91.89C41.39,65.86,21,81.22,11.58,76.78,5.52,73.91,3.94,70.24,3.77,68.72Z"/><path class="cls-2" d="M9,62.08C4.52,67.21,5.5,72,11.91,74.52,8.2,71.17,7.24,65.44,9,62.08Z"/><path class="cls-2" d="M42.7,21.57c-4.45,5.12-3.47,9.91,2.93,12.43C41.93,30.66,41,24.93,42.7,21.57Z"/></g></g></svg>