<svg xmlns="http://www.w3.org/2000/svg" viewBox="0 0 183.81 260.39"><defs><style>.cls-1{fill:#fdd3a3;}.cls-1,.cls-10,.cls-2,.cls-3,.cls-4,.cls-5,.cls-6,.cls-8,.cls-9{fill-rule:evenodd;}.cls-2,.cls-7{fill:#e5e5e5;}.cls-3{fill:#fff;}.cls-4{fill:#f2a40c;}.cls-5{fill:#4e94cf;}.cls-6{fill:#d53535;}.cls-8{fill:#8b8d8e;}.cls-9{fill:#ffe4c6;}.cls-10{fill:#d3a169;}</style></defs><title>hands</title><g id="Layer_2" data-name="Layer 2"><g id="Layer_1-2" data-name="Layer 1"><polygon class="cls-1" points="75.97 84.68 96.95 95.75 105.54 79.26 127.88 61.35 96.71 44.91 75.97 84.68"/><path class="cls-1" d="M147.86,27.26a4.32,4.32,0,0,1-1.18,5.94L112.51,56.45a4.3,4.3,0,0,1-4.75-7.16L141.93,26A4.28,4.28,0,0,1,147.86,27.26Z"/><path class="cls-2" d="M116.7.15l23.43,4.39a8.48,8.48,0,0,1,6.75,9.81L135.57,76.68a8.37,8.37,0,0,1-9.76,6.73L102.35,79a8.48,8.48,0,0,1-6.75-9.82L107,6.86A8.35,8.35,0,0,1,116.7.15Z"/><path class="cls-3" d="M110.88,5.89,143.56,12a.11.11,0,0,1,.09.13L131.9,76.9a.12.12,0,0,1-.14.09L99.05,70.86a.11.11,0,0,1-.09-.13L110.74,6A.11.11,0,0,1,110.88,5.89Z"/><path class="cls-3" d="M110.74,6l16.45,3.09,16.46,3.08-5.88,32.37L131.9,76.9q-8.25-1.53-16.48-3.09L99,70.72l5.88-32.37Z"/><polygon class="cls-4" points="110.74 5.98 127.19 9.07 143.65 12.15 143.08 15.3 126.62 12.22 110.16 9.13 110.74 5.98"/><polygon class="cls-5" points="118.61 12.69 126.27 14.13 133.93 15.56 133.06 20.34 125.4 18.92 117.74 17.48 118.61 12.69"/><polygon class="cls-4" points="107.93 21.43 124.38 24.52 140.84 27.6 138.45 40.8 121.98 37.71 105.52 34.62 107.93 21.43"/><polygon class="cls-2" points="114.56 20.89 124.69 22.79 134.83 24.69 135.2 22.68 125.06 20.79 114.92 18.89 114.56 20.89"/><polygon class="cls-4" points="105.09 48.32 109.22 49.1 113.36 49.88 115.3 39.2 111.16 38.43 107.03 37.65 105.09 48.32"/><polygon class="cls-6" points="115.42 50.26 119.56 51.04 123.69 51.81 125.63 41.14 121.5 40.37 117.37 39.59 115.42 50.26"/><path class="cls-5" d="M125.76,52.2l4.14.77,4.13.78L136,43.07l-4.14-.77-4.13-.77Z"/><path class="cls-4" d="M100,65l16.46,3.09,16.48,3.08-1,5.75q-8.25-1.53-16.48-3.09L99,70.72Z"/><polygon class="cls-2" points="104.46 51.79 108.59 52.57 112.72 53.34 113.09 51.33 108.96 50.56 104.82 49.79 104.46 51.79"/><polygon class="cls-2" points="103.83 55.24 107.96 56.02 112.1 56.8 112.46 54.79 108.33 54.01 104.2 53.24 103.83 55.24"/><polygon class="cls-2" points="103.2 58.69 107.33 59.47 111.47 60.25 111.84 58.23 107.7 57.46 103.57 56.68 103.2 58.69"/><polygon class="cls-2" points="102.58 62.14 107.81 63.12 108.18 61.12 102.94 60.13 102.58 62.14"/><polygon class="cls-2" points="114.8 53.73 118.93 54.51 123.06 55.28 123.43 53.27 119.29 52.5 115.16 51.72 114.8 53.73"/><polygon class="cls-2" points="114.17 57.18 118.3 57.95 122.44 58.73 122.8 56.73 118.67 55.95 114.53 55.17 114.17 57.18"/><polygon class="cls-2" points="113.54 60.63 117.67 61.4 121.81 62.18 122.18 60.17 118.04 59.4 113.9 58.62 113.54 60.63"/><path class="cls-2" d="M112.91,64.08l5.24,1,.36-2-5.23-1Z"/><polygon class="cls-2" points="125.13 55.67 129.27 56.44 133.4 57.22 133.77 55.21 129.63 54.43 125.5 53.66 125.13 55.67"/><polygon class="cls-2" points="124.51 59.12 128.64 59.89 132.78 60.67 133.14 58.66 129 57.89 124.87 57.12 124.51 59.12"/><polygon class="cls-2" points="123.88 62.57 128.01 63.34 132.15 64.12 132.52 62.11 128.38 61.33 124.25 60.56 123.88 62.57"/><path class="cls-2" d="M123.25,66c1.75.32,3.49.65,5.24,1l.37-2-5.24-1Z"/><path class="cls-7" d="M136.82,32.34a.29.29,0,0,1,.08-.3c.07-.06.15,0,.18.08.13.51.27,1,.41,1.54a0,0,0,0,0,0,0h0v0h0v0h0v0h0l0,0-.93,1.3c-.06.09-.15.09-.19,0a.31.31,0,0,1,0-.31l.85-1.19C137.07,33.28,136.94,32.81,136.82,32.34Z"/><path class="cls-7" d="M109.85,27c.06-.09.15-.08.19,0a.33.33,0,0,1,0,.3l-.85,1.18.38,1.41a.35.35,0,0,1-.08.3c-.07.06-.15,0-.18-.07l-.41-1.55v0h0v0h0v0h0v0h0v0h0v0h0v0h0l0,0Z"/><path class="cls-8" d="M115.13,75.43a2.08,2.08,0,0,1,1.66,2.4,2.05,2.05,0,1,1-1.66-2.4Z"/><path class="cls-1" d="M142.5,50.48a4.3,4.3,0,0,1-1.18,5.94l-6.63,4.42a4.3,4.3,0,0,1-4.75-7.16l6.64-4.42A4.27,4.27,0,0,1,142.5,50.48Z"/><path class="cls-1" d="M145.82,38.71a4.29,4.29,0,0,1-1.18,5.93L139,48.41a4.29,4.29,0,0,1-4.74-7.16l5.64-3.76A4.28,4.28,0,0,1,145.82,38.71Z"/><polygon class="cls-3" points="75.91 77.36 102.88 91.58 87.85 120.42 56.51 114.56 75.91 77.36"/><path class="cls-1" d="M87.13,69.54,89.81,71l1.44-3.47L102.8,39.64c2.4-5.79-1-8.53-4.47-10.37L84.69,62.12A5.94,5.94,0,0,0,87.13,69.54Z"/><path class="cls-9" d="M99.55,30c-.4-.25-.81-.48-1.22-.69l-2.75,6.61C98.06,36.31,99,32.47,99.55,30Z"/><path class="cls-9" d="M134.85,42l1.55-1A5.11,5.11,0,0,1,140,46.57l-1.46,1C134.54,50.18,131.53,44.11,134.85,42Z"/><path class="cls-9" d="M130.65,54.38l1.54-1a5.08,5.08,0,0,1,3.57,5.52l-1.46,1C130.33,62.52,127.32,56.45,130.65,54.38Z"/><path class="cls-10" d="M94.27,56.62c2.15.51,3.26,1.93,3,3.29l2.25-12.55,4-9.33c1.21-2.72-.76-6.35-2.81-7.35,1.8.88,2.85,3.73,1.84,6.16C100.83,41,94.37,56.48,94.27,56.62Z"/><path class="cls-9" d="M120.71,47.18l.48,2c-2,2.37-4.38,2.83-7.17,1.68L113.53,49C112.22,43.73,119.76,42.85,120.71,47.18Z"/><path class="cls-9" d="M113.56,79.43c-.45.13-.9.27-1.33.43l3,6.55C117.23,84.87,115,81.56,113.56,79.43Z"/><polygon class="cls-10" points="120.31 79.88 123.78 93.58 118.72 79.31 120.31 79.88"/><polygon class="cls-4" points="69.1 84.31 101.56 101.43 37.79 222.79 0 215.73 69.1 84.31"/><path class="cls-1" d="M130.09,103l5.8,26.4,21.71,4.06c1.11-.67,2.21-1.37,3.28-2.1l-5.78-28.44Z"/><polygon class="cls-3" points="160.86 114.68 164.76 134.82 139.34 164.37 131.87 120.41 160.86 114.68"/><polygon class="cls-4" points="166.32 123.06 183.81 223.23 151.9 260.39 129.96 130.25 166.32 123.06"/><path class="cls-1" d="M112.23,79.86l8.75,19c1.13,2.45,7.83,10.63,10.34,9.71s.65-8.92-.54-11.34l-7-13.07C119.79,76.68,114.83,78.57,112.23,79.86Z"/><path class="cls-1" d="M121.94,47.18l5.56,23.55c1.48-3.8,7.59-3.28,9.08.85,1-4.11,6.76-4.09,8.85-.61,1.52-3.63,7.6-2.87,8.65,1.49l4.8,20c1.35,5.61.06,13.55-1.64,17-5,10.17-19.25,7.85-23.64,3.62-3.43-3.31-6.23-5.28-7-8.28l-14-55.49C110.78,42.26,120.63,41.38,121.94,47.18Z"/><path class="cls-10" d="M135.67,70a5,5,0,0,1,.91,1.56,4.35,4.35,0,0,1,.26-.77c.91,3.91,2,8.74,2,8.74S136.83,73.69,135.67,70Zm-8.12.6a3.72,3.72,0,0,1,.52-.89c.87,4,2.21,10.76,2.21,10.76s-2-6.83-2.78-9.76C127.51,70.78,127.53,70.73,127.55,70.62Zm19.85,7.27s-.87-4-1.66-7.51a3,3,0,0,0-.31.59,5.42,5.42,0,0,0-.63-.84C146,73.64,147.4,77.89,147.4,77.89Z"/><path class="cls-8" d="M121.75,4.24l12.11,2.27a.61.61,0,0,1,.49.71.6.6,0,0,1-.71.48l-12.1-2.27a.61.61,0,0,1-.49-.71A.6.6,0,0,1,121.75,4.24Z"/></g></g></svg>