<svg xmlns="http://www.w3.org/2000/svg" viewBox="0 0 29.75 74.17"><defs><style>.cls-1{fill:#f2a40c;}.cls-1,.cls-2,.cls-3{fill-rule:evenodd;}.cls-2{fill:#fff;}.cls-3{fill:#ffde9d;}</style></defs><title>highlighter</title><g id="Layer_2" data-name="Layer 2"><g id="Layer_1-2" data-name="Layer 1"><path class="cls-1" d="M13.91,24l1.84,8.32c.07.32-.19.43-.57.25l-2.8-1.35a1.62,1.62,0,0,1-.82-.92L9.72,22c-.07-.32.19-.43.57-.25l2.79,1.34A1.63,1.63,0,0,1,13.91,24Z"/><path class="cls-2" d="M15,25.78l2.54,11.5a.83.83,0,0,1-.65,1l-3.3.7a.84.84,0,0,1-1-.63L10.08,26.83a.83.83,0,0,1,.64-1l3.3-.7A.84.84,0,0,1,15,25.78Z"/><path class="cls-2" d="M20,31.6l8.51,38.48a2,2,0,0,1-1.56,2.36L19,74.13a2,2,0,0,1-2.41-1.52L8.05,34.13c-.49-2.22,1.77-4.23,2.49-4.39l5.29-1.12C16.56,28.46,19.46,29.38,20,31.6Z"/><path class="cls-3" d="M21.82,32.64l7.9,35.73A1.42,1.42,0,0,1,28.62,70L16.4,72.64a1.44,1.44,0,0,1-1.71-1.08L6.79,35.84a1.42,1.42,0,0,1,1.1-1.68l12.22-2.59A1.44,1.44,0,0,1,21.82,32.64Z"/><polygon class="cls-1" points="21.95 33.25 29.58 67.76 14.55 70.95 6.93 36.45 21.95 33.25"/><path class="cls-3" d="M15.06,2.07,18,15.34A1.4,1.4,0,0,1,16.89,17L4.67,19.61A1.45,1.45,0,0,1,3,18.53L0,5.27a1.42,1.42,0,0,1,1.1-1.68L13.35,1A1.45,1.45,0,0,1,15.06,2.07Z"/><path class="cls-1" d="M16.08,13.63,13.26.89A1.14,1.14,0,0,0,11.89,0L2.06,2.11a1.14,1.14,0,0,0-.88,1.35L4,16.2a1.14,1.14,0,0,0,1.37.86L15.19,15A1.15,1.15,0,0,0,16.08,13.63Z"/></g></g></svg>