<svg xmlns="http://www.w3.org/2000/svg" viewBox="0 0 171.61 147.44"><defs><style>.cls-1,.cls-10,.cls-2,.cls-3,.cls-4,.cls-6,.cls-7,.cls-9{fill-rule:evenodd;}.cls-2{fill:#fff;}.cls-3{fill:#8b8d8e;}.cls-4,.cls-5{fill:none;stroke:#b2b2b2;stroke-linecap:round;stroke-linejoin:round;}.cls-6{fill:#f2a40c;}.cls-7,.cls-8{fill:#c38200;}.cls-9{fill:#4e94cf;}.cls-10{fill:#7f7f7f;}</style></defs><title>notes</title><g id="Layer_2" data-name="Layer 2"><g id="Layer_1-2" data-name="Layer 1"><path class="cls-1" d="M86.75,142.65a.93.93,0,0,1-1.31-.05l-.12-.13.26-.24a.58.58,0,0,0-.78-.85l-.26.24-.78-.85.26-.24a.58.58,0,0,0-.78-.85l-.25.23a.92.92,0,0,1,.09-1.25.93.93,0,0,1,1.31.05l.53.57,1.89,2.06A.93.93,0,0,1,86.75,142.65Zm-6.65-5.86-.11-.12.26-.24a.58.58,0,0,0,0-.81.57.57,0,0,0-.81,0l-.26.24-.78-.85.26-.24a.58.58,0,0,0,0-.81.57.57,0,0,0-.81,0l-.26.23a.94.94,0,0,1,.09-1.27.93.93,0,0,1,1.31.06l.53.57,1.89,2.05a.93.93,0,0,1-.06,1.32A.92.92,0,0,1,80.1,136.79ZM74.76,131l-.1-.12.26-.24a.58.58,0,0,0,0-.81.57.57,0,0,0-.81,0l-.26.23-.78-.84.26-.24a.59.59,0,0,0,0-.82.57.57,0,0,0-.81,0l-.26.23a.93.93,0,0,1,1.4-1.21l.52.56,1.89,2.06A.93.93,0,0,1,74.76,131Zm-5.33-5.8-.11-.11.26-.24a.58.58,0,1,0-.78-.85l-.26.24-.78-.85.26-.24a.57.57,0,0,0,0-.81.58.58,0,0,0-.82,0l-.25.23a.92.92,0,0,1,.07-1.27.93.93,0,0,1,1.32,0l.52.57,1.89,2a.94.94,0,0,1-.05,1.32A.93.93,0,0,1,69.43,125.19Zm-5.34-5.81-.1-.1.26-.24a.58.58,0,0,0,0-.82.59.59,0,0,0-.82,0l-.26.24-.78-.85.26-.24a.57.57,0,0,0,0-.81.58.58,0,0,0-.82,0l-.25.24A.92.92,0,0,1,63,115.5l.53.56,1.89,2.06a.93.93,0,0,1-.06,1.31A.92.92,0,0,1,64.09,119.38Zm-5.34-5.8-.09-.1.26-.24a.58.58,0,1,0-.78-.85l-.26.24-.78-.85.26-.23a.58.58,0,0,0,0-.82.57.57,0,0,0-.81,0l-.26.23a.93.93,0,0,1,1.38-1.24l.52.57,1.9,2.06a.93.93,0,0,1-1.37,1.26Zm-5.34-5.81-.08-.08.26-.25a.57.57,0,1,0-.78-.84l-.26.24-.78-.85.26-.24a.58.58,0,0,0,0-.82.57.57,0,0,0-.81,0l-.26.24a.94.94,0,0,1,.06-1.31.93.93,0,0,1,1.31.06l.53.57,1.89,2.05a.93.93,0,1,1-1.37,1.26ZM48.07,102l-.07-.08.26-.24a.58.58,0,0,0,0-.82.57.57,0,0,0-.81,0l-.26.24-.78-.85.26-.24a.59.59,0,0,0,0-.82.58.58,0,0,0-.81,0l-.26.24A.93.93,0,0,1,45.71,98a.94.94,0,0,1,1.32,0l.52.57,1.89,2.06a.93.93,0,0,1,0,1.31A.94.94,0,0,1,48.07,102Zm-5.34-5.81-.06-.07.26-.24A.58.58,0,0,0,43,95a.57.57,0,0,0-.81,0l-.26.24-.78-.85.26-.24a.58.58,0,0,0,0-.81.57.57,0,0,0-.81,0l-.26.24h0a.93.93,0,1,1,1.37-1.26l.52.57L44.1,94.9a.93.93,0,1,1-1.37,1.26Zm-5.33-5.8-.07-.07.26-.24a.57.57,0,0,0,0-.81.58.58,0,0,0-.82,0l-.26.24-.78-.85.26-.24a.57.57,0,0,0,0-.81.58.58,0,0,0-.82,0l-.26.24v0a.93.93,0,1,1,1.37-1.25l.52.56,1.89,2.06a.93.93,0,0,1-1.36,1.26Zm-5.34-5.81L32,84.49l.26-.24a.57.57,0,0,0,0-.81.58.58,0,0,0-.82,0l-.26.24-.78-.85.26-.24a.58.58,0,1,0-.78-.85l-.26.24,0,0a.93.93,0,0,1,.06-1.31.92.92,0,0,1,1.31,0l.53.57,1.89,2.05a.94.94,0,0,1-.06,1.32A.92.92,0,0,1,32.06,84.55Zm-5.34-5.8,0,0,.26-.24a.58.58,0,1,0-.78-.85l-.26.24L25.11,77l.26-.24a.58.58,0,0,0-.78-.85l-.26.24,0,0a1,1,0,0,1,.06-1.32.93.93,0,0,1,1.31,0l.53.57,1.89,2.06a.93.93,0,0,1-1.37,1.26ZM21.38,73l0,0,.26-.24a.58.58,0,0,0-.78-.85l-.26.24-.78-.85L20,71a.58.58,0,0,0-.78-.85l-.26.25,0,0a.93.93,0,0,1,1.37-1.26l.52.57,1.89,2.06A.93.93,0,0,1,21.38,73ZM16,67.14l0,0,.26-.24a.58.58,0,0,0-.78-.85l-.26.24-.78-.85.26-.23a.58.58,0,0,0,0-.82.57.57,0,0,0-.81,0l-.26.24,0,0A.93.93,0,1,1,15,63.26l.52.56,1.89,2.06A.93.93,0,1,1,16,67.14Z"/><path class="cls-2" d="M0,57.85l9.22-8.5V61l-.52-.57a.93.93,0,1,0-1.37,1.26l1.89,2.06v4.1Zm9.22-8.5,5.34-4.92v22.4L14,66.26a.94.94,0,0,0-1.32-.05.93.93,0,0,0-.05,1.31l1.89,2.06v4.11L9.22,67.88v-4.1l.52.56a.93.93,0,1,0,1.37-1.26L9.22,61Zm5.34-4.92,5.34-4.91V72.63l-.53-.56A.93.93,0,0,0,18.06,72,.94.94,0,0,0,18,73.33l1.9,2v4.11l-5.34-5.8V69.58l.52.57a.93.93,0,0,0,1.37-1.26l-1.89-2.06Zm5.34-4.91,5.33-4.92V78.44l-.52-.57a.93.93,0,1,0-1.36,1.26l1.88,2.06V85.3L19.9,79.49V75.38l.52.57a.93.93,0,0,0,1.31.06.94.94,0,0,0,.06-1.32L19.9,72.63Zm5.33-4.92,5.34-4.92V84.25l-.52-.57a.93.93,0,0,0-1.31-.06.94.94,0,0,0-.06,1.32l1.89,2V91.1l-5.34-5.8V81.19l.53.57a.93.93,0,0,0,1.37-1.26l-1.9-2.06Zm5.34-4.92,5.34-4.92V90.05l-.52-.57A.93.93,0,0,0,34,90.74l1.89,2.06v4.1l-5.34-5.8V87l.53.57a.93.93,0,0,0,1.31.06.94.94,0,0,0,.05-1.32l-1.89-2Zm5.34-4.92,5.34-4.92v76l-.52-.58a.94.94,0,0,0-1.32,0,.93.93,0,0,0,0,1.31l1.89,2.06v4.11L35.91,96.9V92.8l.52.57A.93.93,0,0,0,37.8,92.1l-1.89-2Zm5.34-4.92,5.34-4.91v86.73l-.53-.57a.93.93,0,1,0-1.36,1.26l1.89,2.06v4.1l-5.34-5.8V98.6l.52.57a.93.93,0,0,0,1.37-1.26l-1.89-2Zm5.34-4.91L51.92,10v97.45l-.52-.56a.92.92,0,0,0-1.31-.06.94.94,0,0,0-.06,1.32l1.89,2v4.11l-5.33-5.81v-4.1l.52.56a.92.92,0,0,0,1.31.06.93.93,0,0,0,.06-1.32l-1.89-2ZM51.92,10l5.34-4.92V113.27l-.52-.57a.93.93,0,0,0-1.31-.06.94.94,0,0,0-.06,1.32L57.26,116v4.11l-5.34-5.8v-4.11l.53.57a.93.93,0,0,0,1.37-1.26l-1.9-2.06Zm5.34-4.92L62.6.17v118.9l-.52-.57a.94.94,0,0,0-1.32,0,.93.93,0,0,0,0,1.31l1.89,2.06v4.11l-5.34-5.81V116l.52.57a.94.94,0,0,0,1.32.06.93.93,0,0,0,0-1.32l-1.89-2ZM62.6.17,62.79,0l5.15,5.6V124.87l-.52-.56a.93.93,0,1,0-1.37,1.26l1.89,2.05v4.11l-5.34-5.8v-4.11l.53.57a.93.93,0,0,0,1.36-1.26l-1.89-2.06ZM67.94,5.6l5.34,5.8V130.68l-.53-.57a.93.93,0,0,0-1.36,1.26l1.89,2.06v4.1l-5.34-5.8v-4.11l.52.57a.93.93,0,1,0,1.37-1.26l-1.89-2.06Zm5.34,5.8,5.34,5.81V136.48l-.53-.57a.93.93,0,0,0-1.37,1.27l1.9,2v4.11l-5.34-5.81v-4.1l.52.57a.93.93,0,0,0,1.37-1.26l-1.89-2.06Zm5.34,5.81,66.56,72.37-62.8,57.86-3.76-4.1v-4.11l.52.57a.93.93,0,0,0,1.37-1.26l-1.89-2.06Z"/><path class="cls-3" d="M7.63,61.52,2.06,66.65a.57.57,0,0,0,0,.81.58.58,0,0,0,.82,0l5.57-5.13a.58.58,0,0,0,0-.82A.57.57,0,0,0,7.63,61.52Z"/><path class="cls-3" d="M9.19,63.22,3.62,68.35a.57.57,0,0,0,0,.81.58.58,0,0,0,.81,0L10,64.06a.57.57,0,0,0-.78-.84Z"/><path class="cls-3" d="M13,67.32,7.39,72.45a.58.58,0,0,0,.78.85l5.57-5.14a.57.57,0,0,0-.78-.84Z"/><path class="cls-3" d="M14.52,69,9,74.14a.58.58,0,0,0,0,.82.57.57,0,0,0,.81,0l5.57-5.13a.58.58,0,0,0-.78-.85Z"/><path class="cls-3" d="M18.29,73.11l-5.57,5.14a.57.57,0,0,0,.78.84L19.07,74a.58.58,0,0,0-.78-.85Z"/><path class="cls-3" d="M19.85,74.81l-5.57,5.13a.58.58,0,0,0,.78.85l5.57-5.13a.56.56,0,0,0,0-.81A.57.57,0,0,0,19.85,74.81Z"/><path class="cls-3" d="M23.62,78.91,18.05,84a.58.58,0,0,0,0,.82.57.57,0,0,0,.81,0l5.57-5.13a.58.58,0,0,0-.78-.85Z"/><path class="cls-3" d="M25.18,80.61l-5.57,5.13a.58.58,0,0,0,.78.85L26,81.46a.58.58,0,1,0-.78-.85Z"/><path class="cls-3" d="M29,84.71l-5.57,5.13a.58.58,0,0,0,0,.81.57.57,0,0,0,.81,0l5.57-5.13a.58.58,0,1,0-.78-.85Z"/><path class="cls-3" d="M30.51,86.41l-5.57,5.13a.58.58,0,0,0,0,.81.57.57,0,0,0,.82,0l5.56-5.13a.57.57,0,0,0,0-.81A.58.58,0,0,0,30.51,86.41Z"/><path class="cls-3" d="M34.29,90.51l-5.58,5.13a.58.58,0,0,0,.79.85l5.57-5.13a.59.59,0,0,0,0-.82A.57.57,0,0,0,34.29,90.51Z"/><path class="cls-3" d="M35.85,92.2l-5.57,5.13a.58.58,0,1,0,.78.85l5.57-5.13a.58.58,0,0,0,0-.81A.57.57,0,0,0,35.85,92.2Z"/><path class="cls-3" d="M39.62,96.3l-5.57,5.13a.59.59,0,0,0,0,.82.58.58,0,0,0,.82,0l5.57-5.13a.58.58,0,0,0,0-.81A.57.57,0,0,0,39.62,96.3Z"/><path class="cls-3" d="M41.18,98l-5.57,5.13a.59.59,0,0,0,0,.82.58.58,0,0,0,.82,0L42,98.85a.58.58,0,0,0-.78-.85Z"/><path class="cls-3" d="M45,102.1l-5.57,5.13a.58.58,0,0,0,0,.82.57.57,0,0,0,.81,0L45.73,103a.58.58,0,0,0-.78-.85Z"/><path class="cls-3" d="M46.51,103.8l-5.57,5.13a.58.58,0,0,0,.78.85l5.57-5.13a.58.58,0,0,0,0-.82A.57.57,0,0,0,46.51,103.8Z"/><path class="cls-3" d="M50.28,107.9,44.71,113a.58.58,0,0,0,.78.85l5.57-5.13a.58.58,0,0,0,0-.82A.57.57,0,0,0,50.28,107.9Z"/><path class="cls-3" d="M51.84,109.6l-5.57,5.13a.57.57,0,0,0,0,.81.58.58,0,0,0,.81,0l5.57-5.14a.57.57,0,0,0,0-.81A.56.56,0,0,0,51.84,109.6Z"/><path class="cls-3" d="M55.61,113.7,50,118.83a.57.57,0,0,0,0,.81.58.58,0,0,0,.81,0l5.57-5.14a.57.57,0,0,0,0-.81A.58.58,0,0,0,55.61,113.7Z"/><path class="cls-3" d="M57.17,115.39l-5.57,5.13a.58.58,0,0,0,.79.85L58,116.24a.57.57,0,0,0,0-.81A.58.58,0,0,0,57.17,115.39Z"/><path class="cls-3" d="M60.94,119.49l-5.57,5.13a.59.59,0,0,0,0,.82.57.57,0,0,0,.81,0l5.57-5.13a.57.57,0,0,0,0-.81A.58.58,0,0,0,60.94,119.49Z"/><path class="cls-3" d="M62.5,121.19l-5.56,5.13a.58.58,0,0,0,0,.82.59.59,0,0,0,.82,0L63.28,122a.58.58,0,0,0,0-.82A.59.59,0,0,0,62.5,121.19Z"/><path class="cls-3" d="M66.28,125.29l-5.57,5.13a.58.58,0,0,0,0,.82.59.59,0,0,0,.82,0l5.57-5.13a.59.59,0,0,0,0-.82A.58.58,0,0,0,66.28,125.29Z"/><path class="cls-3" d="M67.84,127l-5.57,5.13a.57.57,0,0,0,0,.81.58.58,0,0,0,.82,0l5.57-5.13a.59.59,0,0,0,0-.82A.57.57,0,0,0,67.84,127Z"/><path class="cls-3" d="M71.61,131.09,66,136.22a.58.58,0,1,0,.78.85l5.57-5.13a.59.59,0,0,0,0-.82A.57.57,0,0,0,71.61,131.09Z"/><path class="cls-3" d="M73.17,132.79l-5.57,5.13a.57.57,0,1,0,.78.84L74,133.63a.57.57,0,0,0-.78-.84Z"/><path class="cls-3" d="M76.94,136.88,71.37,142a.57.57,0,0,0,0,.81.56.56,0,0,0,.81,0l5.57-5.13a.57.57,0,0,0,0-.81A.58.58,0,0,0,76.94,136.88Z"/><path class="cls-3" d="M78.5,138.58l-5.57,5.13a.58.58,0,0,0,0,.82.57.57,0,0,0,.81,0l5.57-5.13a.58.58,0,0,0-.78-.85Z"/><polygon class="cls-4" points="23.47 63.12 45.74 42.57 68.02 22.02 95.23 51.56 122.44 81.1 100.16 101.65 77.89 122.2 50.69 92.67 23.47 63.12"/><polygon class="cls-4" points="23.47 63.12 45.74 42.57 68.02 22.02 70.66 24.89 48.39 45.44 26.12 65.99 23.47 63.12"/><polygon class="cls-4" points="39.63 56.75 49.99 47.19 60.36 37.62 64.39 41.99 54.02 51.56 43.65 61.12 39.63 56.75"/><polygon class="cls-4" points="36.47 77.22 58.73 56.68 81.01 36.12 92.1 48.17 69.83 68.72 47.56 89.27 36.47 77.22"/><polygon class="cls-4" points="43.56 67.75 57.28 55.1 71 42.44 69.31 40.61 55.59 53.27 41.88 65.92 43.56 67.75"/><polygon class="cls-4" points="61.45 98.94 67.04 93.78 72.63 88.62 63.67 78.88 58.07 84.04 52.48 89.2 61.45 98.94"/><polygon class="cls-4" points="75.43 86.03 81.02 80.88 86.61 75.71 77.65 65.98 72.05 71.14 66.46 76.3 75.43 86.03"/><polygon class="cls-4" points="89.41 73.13 95 67.97 100.6 62.81 91.63 53.07 86.03 58.24 80.44 63.39 89.41 73.13"/><polygon class="cls-4" points="73.06 116.96 95.33 96.41 117.6 75.85 122.44 81.1 100.16 101.65 77.89 122.2 73.06 116.96"/><polygon class="cls-4" points="64.37 102.1 69.96 96.94 75.55 91.78 73.86 89.95 68.27 95.11 62.68 100.27 64.37 102.1"/><polygon class="cls-4" points="67.27 105.25 72.86 100.09 78.45 94.93 76.76 93.1 71.17 98.26 65.58 103.42 67.27 105.25"/><polygon class="cls-4" points="70.16 108.4 75.75 103.24 81.35 98.07 79.66 96.24 74.06 101.4 68.47 106.56 70.16 108.4"/><rect class="cls-5" x="70.94" y="106.12" width="9.64" height="2.49" transform="translate(-52.72 79.8) rotate(-42.69)"/><polygon class="cls-4" points="78.35 89.2 83.94 84.04 89.53 78.88 87.85 77.05 82.25 82.21 76.66 87.37 78.35 89.2"/><polygon class="cls-4" points="81.25 92.35 86.84 87.19 92.43 82.03 90.75 80.2 85.15 85.36 79.56 90.52 81.25 92.35"/><polygon class="cls-4" points="84.14 95.49 89.73 90.33 95.33 85.17 93.64 83.34 88.05 88.5 82.46 93.66 84.14 95.49"/><polygon class="cls-4" points="87.04 98.64 94.13 92.11 92.44 90.27 85.36 96.81 87.04 98.64"/><polygon class="cls-4" points="92.33 76.3 97.92 71.14 103.51 65.98 101.83 64.15 96.23 69.31 90.64 74.47 92.33 76.3"/><polygon class="cls-4" points="95.23 79.45 100.82 74.29 106.42 69.13 104.73 67.29 99.13 72.46 93.54 77.62 95.23 79.45"/><polygon class="cls-4" points="98.13 82.59 103.72 77.43 109.31 72.27 107.62 70.44 102.03 75.6 96.44 80.76 98.13 82.59"/><rect class="cls-5" x="98.91" y="80.31" width="9.64" height="2.49" transform="translate(-27.81 92.03) rotate(-42.73)"/><path class="cls-5" d="M81.34,44.78a.28.28,0,0,1-.23-.31.22.22,0,0,1,.28-.19l2.11.46h0l0,0h0s0,0,0,0h0l0,0h0l0,0v0h0v0h0v0L84,47.13a.23.23,0,0,1-.22.26.28.28,0,0,1-.29-.25l-.26-1.94Z"/><path class="cls-5" d="M44.55,78.27a.22.22,0,0,1,.22-.26.28.28,0,0,1,.29.25l.26,1.94,1.91.42a.28.28,0,0,1,.23.31.23.23,0,0,1-.28.19l-2.11-.46H45s0,0,0,0h0a0,0,0,0,1,0,0l0,0h0l0,0v0h0v0h0v0Z"/><polygon class="cls-6" points="108.95 80.6 160.96 69.94 168.58 107.21 156.83 125.02 119.6 132.65 108.95 80.6"/><polygon class="cls-7" points="153.81 110.24 168.58 107.21 156.83 125.02 153.81 110.24"/><rect class="cls-8" x="109.2" y="75.19" width="53.09" height="7.9" transform="matrix(0.98, -0.2, 0.2, 0.98, -13.13, 28.87)"/><polygon class="cls-6" points="171.61 122 156.83 125.02 168.58 107.21 171.61 122"/><path class="cls-9" d="M47.59,3.88l-3.37,1a.6.6,0,0,0-.4.72l5.72,19.89a.58.58,0,0,0,.71.39l3.38-1a.57.57,0,0,0,.39-.71L48.31,4.27A.58.58,0,0,0,47.59,3.88Z"/><path class="cls-9" d="M45,13.61c-2,.54-4.4,1.18-4.28,5,.06,1.58,1.91,8.63,4.05,16.11l.23.77V28.07a77.65,77.65,0,0,1-2.26-9.53c-.07-1.93,1.09-2.5,2.26-2.85Zm0,0h0Zm0,21.89c2.56,8.93,5.48,18.28,6.13,19.51a6.55,6.55,0,0,0,1.14,1.67,1.62,1.62,0,0,0,1.64.45c1-.26,1.39-1.45,1.37-2.71a8.47,8.47,0,0,0-.11-1.14,6,6,0,0,0-.27-1c-.3-.77-.81-1.21-1.51-1.1a1,1,0,0,0-.82,1.16,1,1,0,0,0,.47.7,4.15,4.15,0,0,1,.14.6,4.52,4.52,0,0,1,.08.84.84.84,0,0,0,0,.29c-.11-.17-.25-.4-.4-.69-.63-1.17-3.62-10.85-6.2-19.89C46.11,32.05,45.53,30,45,28.07Zm1-20.08a1,1,0,0,0,.69-1.25,1,1,0,0,0-1.24-.69L45,13.6h0v2.08l.52-.14h0Z"/><path class="cls-6" d="M51.18,11.43l-6,1.72a1,1,0,0,0-.7,1.28L67.2,92.85C67.82,95,75.83,118,77.06,117.6l2.89-.83c1.06-.3-4.16-24.08-4.78-26.21L52.45,12.13A1,1,0,0,0,51.18,11.43Z"/><polygon class="cls-9" points="60.37 69.04 60.95 71.07 68.92 68.78 68.33 66.75 60.37 69.04"/><polygon class="cls-9" points="59.35 65.49 59.93 67.52 67.9 65.23 67.31 63.2 59.35 65.49"/><polygon class="cls-10" points="77.06 117.6 79.73 120.5 79.95 116.77 77.06 117.6"/></g></g></svg>