<svg xmlns="http://www.w3.org/2000/svg" viewBox="0 0 143.71 139.17"><defs><style>.cls-1{fill:#3f3f3f;}.cls-1,.cls-2,.cls-3,.cls-4,.cls-5,.cls-6,.cls-7,.cls-8,.cls-9{fill-rule:evenodd;}.cls-2{fill:#b33334;}.cls-3{fill:#fff;}.cls-4{fill:#fdd3a3;}.cls-5{fill:#4c4c4c;}.cls-6{fill:#f2a40c;}.cls-7{fill:#1b598b;}.cls-8{fill:#ff7c7c;}.cls-9{fill:#dd6700;}</style></defs><title>pencil</title><g id="Layer_2" data-name="Layer 2"><g id="Layer_1-2" data-name="Layer 1"><path class="cls-1" d="M79.57,103.79a34,34,0,1,0-34-34A34.05,34.05,0,0,0,79.57,103.79Z"/><path class="cls-2" d="M12.9,75.14,0,69.46l12.9-5.69h53a3.12,3.12,0,0,1,3.1,3.1V72a3.12,3.12,0,0,1-3.1,3.1Z"/><path class="cls-3" d="M12.9,75.14,0,69.46l12.9-5.69H61.36a32.63,32.63,0,0,1,0,11.37Z"/><path class="cls-2" d="M12.9,75.14,0,69.46l12.9-5.69H57.73a30.38,30.38,0,0,1,0,11.37Z"/><path class="cls-4" d="M12.9,75.14,0,69.46l12.9-5.69a30.79,30.79,0,0,1,.52,5.69A30.76,30.76,0,0,1,12.9,75.14Z"/><path class="cls-5" d="M4.26,71.33,0,69.46l4.26-1.88a10.35,10.35,0,0,1,.17,1.88A10.24,10.24,0,0,1,4.26,71.33Z"/><path class="cls-6" d="M42.71,14,41.46,0l11.2,8.55L78.28,55a3.09,3.09,0,0,1-1.22,4.21l-4.52,2.5a3.12,3.12,0,0,1-4.22-1.22Z"/><path class="cls-3" d="M42.71,14,41.46,0l11.2,8.55L76.07,51a32.7,32.7,0,0,1-9.95,5.5Z"/><path class="cls-6" d="M42.71,14,41.46,0l11.2,8.55L74.32,47.78a30.49,30.49,0,0,1-9.95,5.49Z"/><path class="cls-4" d="M42.71,14,41.46,0l11.2,8.55a31.18,31.18,0,0,1-4.72,3.19A31.8,31.8,0,0,1,42.71,14Z"/><path class="cls-5" d="M41.87,4.64,41.46,0l3.7,2.82A10.41,10.41,0,0,1,43.6,3.88,11.83,11.83,0,0,1,41.87,4.64Z"/><path class="cls-2" d="M110.43,10.51,122.1,2.6l-2,14L91.94,61.47a3.11,3.11,0,0,1-4.28,1l-4.38-2.74a3.1,3.1,0,0,1-1-4.27Z"/><path class="cls-3" d="M110.43,10.51,122.1,2.6l-2,14L94.36,57.6a32.6,32.6,0,0,1-9.64-6Z"/><path class="cls-2" d="M110.43,10.51,122.1,2.6l-2,14-23.78,38a30.56,30.56,0,0,1-9.64-6Z"/><path class="cls-4" d="M110.44,10.52,122.1,2.6l-2,14A30.85,30.85,0,0,1,115,14,31.48,31.48,0,0,1,110.44,10.52Z"/><path class="cls-5" d="M118.25,5.22,122.1,2.6l-.67,4.61a10.61,10.61,0,0,1-1.68-.85A10.94,10.94,0,0,1,118.25,5.22Z"/><path class="cls-7" d="M129.7,34.88l14-1.5-8.35,11.36-46,26.41A3.1,3.1,0,0,1,85.16,70l-2.58-4.48a3.11,3.11,0,0,1,1.14-4.23Z"/><path class="cls-3" d="M129.7,34.88l14-1.5-8.35,11.36-42,24.14A32.66,32.66,0,0,1,87.68,59Z"/><path class="cls-7" d="M129.7,34.88l14-1.5-8.35,11.36L96.5,67.07a30.5,30.5,0,0,1-5.67-9.86Z"/><path class="cls-4" d="M129.7,34.88l14-1.5-8.35,11.36a31.35,31.35,0,0,1-5.66-9.86Z"/><path class="cls-5" d="M139.08,33.88l4.63-.5L141,37.13a11.09,11.09,0,0,1-1.08-1.54A11.38,11.38,0,0,1,139.08,33.88Z"/><path class="cls-3" d="M117.09,125.14l1.41,14-11.31-8.42L81,84.66a3.1,3.1,0,0,1,1.16-4.23l4.5-2.55a3.11,3.11,0,0,1,4.23,1.17Z"/><path class="cls-1" d="M117.09,125.14l1.41,14-11.31-8.42L83.28,88.63A32.61,32.61,0,0,1,93.17,83Z"/><path class="cls-3" d="M117.09,125.14l1.41,14-11.31-8.42-22.12-39A30.43,30.43,0,0,1,95,86.17Z"/><path class="cls-4" d="M117.09,125.15l1.41,14-11.31-8.42a31.38,31.38,0,0,1,9.9-5.6Z"/><path class="cls-5" d="M118,134.53l.47,4.64-3.73-2.78a9.91,9.91,0,0,1,1.55-1.08A10.41,10.41,0,0,1,118,134.53Z"/><path class="cls-8" d="M38.71,108.45l-13.66,3.46,6.66-12.42L73.5,66.86a3.1,3.1,0,0,1,4.35.54L81,71.47a3.1,3.1,0,0,1-.54,4.35Z"/><path class="cls-3" d="M38.71,108.45l-13.66,3.46,6.66-12.42L69.9,69.67a32.38,32.38,0,0,1,7,9Z"/><path class="cls-8" d="M38.71,108.45l-13.66,3.46,6.66-12.42L67,71.9a30.35,30.35,0,0,1,7,9Z"/><path class="cls-4" d="M38.71,108.45l-13.66,3.46,6.66-12.42a31.11,31.11,0,0,1,3.91,4.16A32,32,0,0,1,38.71,108.45Z"/><path class="cls-5" d="M29.56,110.76l-4.51,1.15,2.2-4.11a10.67,10.67,0,0,1,1.29,1.38A10.09,10.09,0,0,1,29.56,110.76Z"/><path class="cls-9" d="M130.91,104.05l6.52,12.49-13.63-3.61L82.39,79.82a3.1,3.1,0,0,1-.48-4.35l3.22-4A3.11,3.11,0,0,1,89.49,71Z"/><path class="cls-3" d="M130.91,104.05l6.52,12.49-13.63-3.61L86,82.68a32.65,32.65,0,0,1,7.1-8.88Z"/><path class="cls-9" d="M130.91,104.05l6.52,12.49-13.63-3.61-35-28a30.48,30.48,0,0,1,7.1-8.87Z"/><path class="cls-4" d="M130.91,104.05l6.52,12.49-13.63-3.61a31.59,31.59,0,0,1,3.15-4.76A31.07,31.07,0,0,1,130.91,104.05Z"/><path class="cls-5" d="M135.27,112.42l2.16,4.12-4.5-1.19a9.08,9.08,0,0,1,1-1.57A10.57,10.57,0,0,1,135.27,112.42Z"/></g></g></svg>